<svg xmlns="http://www.w3.org/2000/svg" xmlns:xlink="http://www.w3.org/1999/xlink" viewBox="0 0 750 500"><defs><style>.cls-1{fill:url(#Degradado_sin_nombre_29);}.cls-2{fill:url(#Degradado_sin_nombre_29-2);}.cls-3{fill:url(#Degradado_sin_nombre_146);}.cls-4{fill:url(#Degradado_sin_nombre_14);}.cls-5{fill:url(#Degradado_sin_nombre_159);}.cls-6{fill:url(#Degradado_sin_nombre_13);}.cls-7{fill:url(#Degradado_sin_nombre_14-2);}.cls-8{fill:url(#Degradado_sin_nombre_14-3);}.cls-9{fill:url(#Degradado_sin_nombre_14-4);}.cls-10{fill:url(#Degradado_sin_nombre_173);}.cls-11{fill:url(#Degradado_sin_nombre_13-2);}.cls-12{fill:url(#Degradado_sin_nombre_14-5);}.cls-13{fill:url(#Degradado_sin_nombre_29-3);}.cls-14{fill:url(#Degradado_sin_nombre_14-6);}.cls-15{fill:url(#Degradado_sin_nombre_14-7);}.cls-16{fill:url(#Degradado_sin_nombre_14-8);}.cls-17{fill:url(#Degradado_sin_nombre_13-3);}.cls-18{fill:url(#Degradado_sin_nombre_159-2);}.cls-19{fill:url(#Degradado_sin_nombre_29-4);}.cls-20{fill:url(#Degradado_sin_nombre_29-5);}.cls-21{fill:url(#Degradado_sin_nombre_29-6);}.cls-22{fill:url(#Degradado_sin_nombre_29-7);}.cls-23{fill:none;}.cls-24{fill:url(#Degradado_sin_nombre_14-9);}.cls-25{fill:url(#Degradado_sin_nombre_146-2);}.cls-26{isolation:isolate;}.cls-27{fill:url(#Degradado_sin_nombre_92);}.cls-28,.cls-34,.cls-42,.cls-43{fill:#fff;}.cls-117,.cls-119,.cls-28{opacity:0.42;}.cls-28,.cls-34,.cls-42,.cls-43,.cls-72{mix-blend-mode:hard-light;}.cls-29{fill:url(#Degradado_sin_nombre_29-8);}.cls-30{fill:url(#Degradado_sin_nombre_20);}.cls-31{fill:url(#Degradado_sin_nombre_92-2);}.cls-32{fill:url(#Degradado_sin_nombre_92-3);}.cls-33{fill:url(#Degradado_sin_nombre_92-4);}.cls-34{opacity:0.68;}.cls-35{fill:url(#Degradado_sin_nombre_29-9);}.cls-36{fill:url(#Degradado_sin_nombre_29-10);}.cls-37{fill:url(#Degradado_sin_nombre_146-3);}.cls-38{fill:url(#Degradado_sin_nombre_29-11);}.cls-39{fill:url(#Degradado_sin_nombre_29-12);}.cls-40{fill:#bdbcd8;}.cls-41{fill:url(#Degradado_sin_nombre_159-3);}.cls-42{opacity:0.34;}.cls-43{opacity:0.22;}.cls-44{fill:url(#Degradado_sin_nombre_29-13);}.cls-45{opacity:0.44;fill:url(#Degradado_sin_nombre_13-4);}.cls-101,.cls-111,.cls-113,.cls-114,.cls-117,.cls-119,.cls-124,.cls-131,.cls-133,.cls-134,.cls-135,.cls-138,.cls-45,.cls-48,.cls-50,.cls-52,.cls-55,.cls-57,.cls-59,.cls-61,.cls-63,.cls-66,.cls-71,.cls-80,.cls-82,.cls-85,.cls-88,.cls-92,.cls-93,.cls-94,.cls-95{mix-blend-mode:multiply;}.cls-46{fill:url(#Degradado_sin_nombre_20-2);}.cls-47{clip-path:url(#clip-path);}.cls-48{fill:url(#Degradado_sin_nombre_29-15);}.cls-49{clip-path:url(#clip-path-2);}.cls-50{fill:url(#Degradado_sin_nombre_29-17);}.cls-51,.cls-52{fill:url(#Degradado_sin_nombre_29-18);}.cls-53{fill:url(#Degradado_sin_nombre_29-20);}.cls-54{clip-path:url(#clip-path-3);}.cls-55{fill:url(#Degradado_sin_nombre_29-22);}.cls-56{clip-path:url(#clip-path-4);}.cls-57{fill:url(#Degradado_sin_nombre_29-24);}.cls-58{clip-path:url(#clip-path-5);}.cls-59{fill:url(#Degradado_sin_nombre_29-26);}.cls-60{clip-path:url(#clip-path-6);}.cls-61{fill:url(#Degradado_sin_nombre_29-28);}.cls-62{clip-path:url(#clip-path-7);}.cls-63{fill:url(#Degradado_sin_nombre_29-30);}.cls-64{fill:url(#Degradado_sin_nombre_20-3);}.cls-65,.cls-66{fill:url(#Degradado_sin_nombre_29-31);}.cls-67{fill:url(#Degradado_sin_nombre_29-33);}.cls-68{fill:url(#Degradado_sin_nombre_159-4);}.cls-69{fill:url(#Degradado_sin_nombre_159-5);}.cls-70{fill:url(#Degradado_sin_nombre_159-6);}.cls-71{fill:#7ea2da;opacity:0.2;}.cls-72{fill:#e6fafc;}.cls-73{clip-path:url(#clip-path-8);}.cls-74{opacity:0.7;fill:url(#Degradado_sin_nombre_8);}.cls-118,.cls-74{mix-blend-mode:screen;}.cls-75{fill:#f8feff;opacity:0.35;}.cls-76{fill:url(#Degradado_sin_nombre_159-7);}.cls-77{fill:url(#Degradado_sin_nombre_159-8);}.cls-78{fill:url(#Degradado_sin_nombre_173-2);}.cls-79{clip-path:url(#clip-path-9);}.cls-101,.cls-80,.cls-88{opacity:0.39;}.cls-80{fill:url(#Degradado_sin_nombre_14-11);}.cls-81{clip-path:url(#clip-path-10);}.cls-82,.cls-85{opacity:0.27;}.cls-82{fill:url(#Degradado_sin_nombre_146-5);}.cls-83{fill:url(#Degradado_sin_nombre_173-3);}.cls-84{clip-path:url(#clip-path-11);}.cls-85{fill:url(#Degradado_sin_nombre_146-7);}.cls-86{fill:url(#Degradado_sin_nombre_146-8);}.cls-87{clip-path:url(#clip-path-12);}.cls-88{fill:url(#Degradado_sin_nombre_14-13);}.cls-89{fill:url(#Degradado_sin_nombre_173-4);}.cls-90{fill:url(#Degradado_sin_nombre_14-14);}.cls-91{clip-path:url(#clip-path-13);}.cls-92,.cls-93{opacity:0.28;}.cls-92{fill:url(#Degradado_sin_nombre_159-10);}.cls-93{fill:url(#Degradado_sin_nombre_159-11);}.cls-94{fill:url(#Degradado_sin_nombre_159-12);}.cls-95{fill:url(#Degradado_sin_nombre_159-13);}.cls-96{clip-path:url(#clip-path-14);}.cls-97{fill:url(#Degradado_sin_nombre_14-15);}.cls-98{fill:url(#Degradado_sin_nombre_173-5);}.cls-99{fill:url(#Degradado_sin_nombre_173-6);}.cls-100{clip-path:url(#clip-path-15);}.cls-101{fill:url(#Degradado_sin_nombre_14-17);}.cls-102{fill:url(#Degradado_sin_nombre_146-9);}.cls-103{fill:url(#Degradado_sin_nombre_14-18);}.cls-104{fill:url(#Degradado_sin_nombre_14-19);}.cls-105{fill:url(#Degradado_sin_nombre_151);}.cls-106{fill:url(#Degradado_sin_nombre_14-20);}.cls-107{clip-path:url(#clip-path-16);}.cls-108{fill:url(#Degradado_sin_nombre_173-7);}.cls-109{clip-path:url(#clip-path-17);}.cls-110{fill:url(#Degradado_sin_nombre_173-8);}.cls-111{fill:#ebd0bd;opacity:0.32;}.cls-112{clip-path:url(#clip-path-18);}.cls-113{opacity:0.48;fill:url(#Degradado_sin_nombre_173-10);}.cls-114{opacity:0.36;fill:url(#Degradado_sin_nombre_173-11);}.cls-115{fill:url(#Degradado_sin_nombre_14-23);}.cls-116{clip-path:url(#clip-path-19);}.cls-117{fill:url(#Degradado_sin_nombre_13-7);}.cls-118{opacity:0.31;fill:url(#Degradado_sin_nombre_13-8);}.cls-119{fill:url(#Degradado_sin_nombre_13-9);}.cls-120{fill:url(#Degradado_sin_nombre_13-10);}.cls-121{fill:url(#Degradado_sin_nombre_173-12);}.cls-122{fill:url(#Degradado_sin_nombre_14-24);}.cls-123{clip-path:url(#clip-path-20);}.cls-124,.cls-134{opacity:0.43;}.cls-124{fill:url(#Degradado_sin_nombre_14-26);}.cls-125{clip-path:url(#clip-path-21);}.cls-126{fill:url(#Degradado_sin_nombre_173-13);}.cls-127{clip-path:url(#clip-path-22);}.cls-128{fill:url(#Degradado_sin_nombre_173-14);}.cls-129{fill:url(#Degradado_sin_nombre_173-15);}.cls-130{clip-path:url(#clip-path-23);}.cls-131{opacity:0.58;fill:url(#Degradado_sin_nombre_14-30);}.cls-132{clip-path:url(#clip-path-24);}.cls-133{opacity:0.26;fill:url(#Degradado_sin_nombre_13-12);}.cls-134{fill:url(#Degradado_sin_nombre_13-13);}.cls-135{opacity:0.3;fill:url(#Degradado_sin_nombre_13-14);}.cls-136{fill:url(#Degradado_sin_nombre_13-15);}.cls-137{clip-path:url(#clip-path-25);}.cls-138{opacity:0.29;fill:url(#Degradado_sin_nombre_159-15);}.cls-139{fill:url(#Degradado_sin_nombre_159-16);}.cls-140{fill:url(#Degradado_sin_nombre_173-16);}.cls-141{fill:url(#Degradado_sin_nombre_14-31);}.cls-142{fill:url(#Degradado_sin_nombre_14-32);}</style><linearGradient id="Degradado_sin_nombre_29" x1="731" y1="302.55" x2="620.92" y2="302.55" gradientUnits="userSpaceOnUse"><stop offset="0" stop-color="#70aeab"/><stop offset="1" stop-color="#678ec4"/></linearGradient><linearGradient id="Degradado_sin_nombre_29-2" x1="1515.65" y1="324.44" x2="1405.57" y2="324.44" gradientTransform="matrix(-1, 0, 0, 1, 1824, 0)" xlink:href="#Degradado_sin_nombre_29"/><linearGradient id="Degradado_sin_nombre_146" x1="2481.06" y1="-923.61" x2="2459.34" y2="-961.24" gradientTransform="matrix(-0.89, 0.45, 0.45, 0.89, 2857.5, -144.64)" gradientUnits="userSpaceOnUse"><stop offset="0.01" stop-color="#ca8194"/><stop offset="1" stop-color="#b7496a"/></linearGradient><linearGradient id="Degradado_sin_nombre_14" x1="2445.91" y1="-948.67" x2="2432.87" y2="-971.26" gradientTransform="matrix(-0.89, 0.45, 0.45, 0.89, 2857.5, -144.64)" gradientUnits="userSpaceOnUse"><stop offset="0" stop-color="#e5b5bb"/><stop offset="1" stop-color="#ebd1bd"/></linearGradient><linearGradient id="Degradado_sin_nombre_159" x1="211.24" y1="180.74" x2="279.23" y2="180.74" gradientUnits="userSpaceOnUse"><stop offset="0.01" stop-color="#67a1c2"/><stop offset="1" stop-color="#3e5b97"/></linearGradient><linearGradient id="Degradado_sin_nombre_13" x1="188.11" y1="135.18" x2="341.23" y2="135.18" gradientUnits="userSpaceOnUse"><stop offset="0" stop-color="#d88b2f"/><stop offset="1" stop-color="#e6bd4a"/></linearGradient><linearGradient id="Degradado_sin_nombre_14-2" x1="2545.05" y1="1058.17" x2="2578.67" y2="1058.17" gradientTransform="matrix(0.12, -0.99, -0.99, -0.12, 979.56, 2798.74)" xlink:href="#Degradado_sin_nombre_14"/><linearGradient id="Degradado_sin_nombre_14-3" x1="247.62" y1="409.71" x2="262.48" y2="409.71" gradientTransform="matrix(1, 0, 0, 1, 0, 0)" xlink:href="#Degradado_sin_nombre_14"/><linearGradient id="Degradado_sin_nombre_14-4" x1="278.55" y1="408.92" x2="288.15" y2="408.92" gradientTransform="matrix(1, 0, 0, 1, 0, 0)" xlink:href="#Degradado_sin_nombre_14"/><linearGradient id="Degradado_sin_nombre_173" x1="255.52" y1="356.29" x2="291.16" y2="356.29" gradientUnits="userSpaceOnUse"><stop offset="0" stop-color="#3d365f"/><stop offset="1" stop-color="#58467f"/></linearGradient><linearGradient id="Degradado_sin_nombre_13-2" x1="249.11" y1="284.57" x2="294.29" y2="284.57" xlink:href="#Degradado_sin_nombre_13"/><linearGradient id="Degradado_sin_nombre_14-5" x1="546.92" y1="263.73" x2="603.82" y2="263.73" gradientTransform="matrix(1, 0, 0, 1, 0, 0)" xlink:href="#Degradado_sin_nombre_14"/><linearGradient id="Degradado_sin_nombre_29-3" x1="927.82" y1="-196.1" x2="780.63" y2="-196.1" gradientTransform="translate(294.63 1050.08) rotate(-52.3)" xlink:href="#Degradado_sin_nombre_29"/><linearGradient id="Degradado_sin_nombre_14-6" x1="645.65" y1="406.43" x2="658.26" y2="406.43" gradientTransform="matrix(1, 0, 0, 1, 0, 0)" xlink:href="#Degradado_sin_nombre_14"/><linearGradient id="Degradado_sin_nombre_14-7" x1="578.98" y1="416.67" x2="597.45" y2="416.67" gradientTransform="matrix(1, 0, 0, 1, 0, 0)" xlink:href="#Degradado_sin_nombre_14"/><linearGradient id="Degradado_sin_nombre_14-8" x1="569.83" y1="253.55" x2="589.05" y2="253.55" gradientTransform="matrix(1, -0.02, 0.02, 1, -4.66, 21.98)" xlink:href="#Degradado_sin_nombre_14"/><linearGradient id="Degradado_sin_nombre_13-3" x1="574.03" y1="361.21" x2="654.18" y2="361.21" xlink:href="#Degradado_sin_nombre_13"/><linearGradient id="Degradado_sin_nombre_159-2" x1="571.67" y1="291.95" x2="611.96" y2="291.95" xlink:href="#Degradado_sin_nombre_159"/><linearGradient id="Degradado_sin_nombre_29-4" x1="172.77" y1="449.43" x2="164.14" y2="502.44" gradientTransform="translate(-201.73 -85.24) rotate(-16.37)" xlink:href="#Degradado_sin_nombre_29"/><linearGradient id="Degradado_sin_nombre_29-5" x1="1270.68" y1="386.1" x2="1181.5" y2="386.1" gradientTransform="matrix(-0.97, 0.24, 0.24, 0.97, 1173.78, -312.97)" xlink:href="#Degradado_sin_nombre_29"/><linearGradient id="Degradado_sin_nombre_29-6" x1="200.59" y1="346.02" x2="128.72" y2="346.02" xlink:href="#Degradado_sin_nombre_29"/><linearGradient id="Degradado_sin_nombre_29-7" x1="549.11" y1="-566.64" x2="442.95" y2="-566.64" gradientTransform="translate(294.63 1050.08) rotate(-52.3)" xlink:href="#Degradado_sin_nombre_29"/><linearGradient id="Degradado_sin_nombre_14-9" x1="2635.34" y1="1120.24" x2="2672.82" y2="1120.24" gradientTransform="matrix(-0.73, -0.68, -0.68, 0.73, 2959.5, 1117.97)" xlink:href="#Degradado_sin_nombre_14"/><linearGradient id="Degradado_sin_nombre_146-2" x1="32.21" y1="-1853.33" x2="24.84" y2="-1866.09" gradientTransform="matrix(-0.11, 0.99, 0.99, 0.11, 2093.5, 307.23)" xlink:href="#Degradado_sin_nombre_146"/><linearGradient id="Degradado_sin_nombre_92" x1="40.7" y1="233.19" x2="722.94" y2="233.19" gradientUnits="userSpaceOnUse"><stop offset="0" stop-color="#dedde9"/><stop offset="0.99" stop-color="#b0bfe8"/></linearGradient><linearGradient id="Degradado_sin_nombre_29-8" x1="82.57" y1="214.51" x2="146.02" y2="277.96" xlink:href="#Degradado_sin_nombre_29"/><linearGradient id="Degradado_sin_nombre_20" x1="147.02" y1="323.24" x2="210.47" y2="386.7" gradientUnits="userSpaceOnUse"><stop offset="0.01" stop-color="#cfa08e"/><stop offset="1" stop-color="#d26a8f"/></linearGradient><linearGradient id="Degradado_sin_nombre_92-2" x1="234.72" y1="413.95" x2="304.26" y2="413.95" xlink:href="#Degradado_sin_nombre_92"/><linearGradient id="Degradado_sin_nombre_92-3" x1="78.63" y1="418.57" x2="184.15" y2="418.57" xlink:href="#Degradado_sin_nombre_92"/><linearGradient id="Degradado_sin_nombre_92-4" x1="545.93" y1="420.76" x2="668.96" y2="420.76" xlink:href="#Degradado_sin_nombre_92"/><linearGradient id="Degradado_sin_nombre_29-9" x1="360.44" y1="178.53" x2="372.16" y2="178.53" xlink:href="#Degradado_sin_nombre_29"/><linearGradient id="Degradado_sin_nombre_29-10" x1="159.71" y1="152.55" x2="171.42" y2="152.55" xlink:href="#Degradado_sin_nombre_29"/><linearGradient id="Degradado_sin_nombre_146-3" x1="100.35" y1="180.39" x2="410.33" y2="180.39" gradientTransform="matrix(1, 0, 0, 1, 0, 0)" xlink:href="#Degradado_sin_nombre_146"/><linearGradient id="Degradado_sin_nombre_29-11" x1="183.14" y1="152.55" x2="171.42" y2="152.55" xlink:href="#Degradado_sin_nombre_29"/><linearGradient id="Degradado_sin_nombre_29-12" x1="383.88" y1="178.53" x2="372.16" y2="178.53" xlink:href="#Degradado_sin_nombre_29"/><linearGradient id="Degradado_sin_nombre_159-3" x1="99.08" y1="275.24" x2="418.35" y2="275.24" xlink:href="#Degradado_sin_nombre_159"/><linearGradient id="Degradado_sin_nombre_29-13" x1="284.57" y1="208.51" x2="348.02" y2="271.96" xlink:href="#Degradado_sin_nombre_29"/><linearGradient id="Degradado_sin_nombre_13-4" x1="261.65" y1="316.21" x2="316.23" y2="316.21" xlink:href="#Degradado_sin_nombre_13"/><linearGradient id="Degradado_sin_nombre_20-2" x1="127.02" y1="253.24" x2="190.47" y2="316.7" xlink:href="#Degradado_sin_nombre_20"/><clipPath id="clip-path"><path id="_Masque_" data-name="&lt;Masque&gt;" class="cls-1" d="M622.53,328s43.9-9,56.82-22,51.65,0,51.65,0S710.34,289.3,693.55,288l-14.2,9,5.17-9s-28.41-18.08-41.32-7.75S616.07,304.79,622.53,328Z"/></clipPath><linearGradient id="Degradado_sin_nombre_29-15" x1="621.24" y1="319.42" x2="700.58" y2="319.42" xlink:href="#Degradado_sin_nombre_29"/><clipPath id="clip-path-2"><path id="_Masque_2" data-name="&lt;Masque&gt;" class="cls-2" d="M416.82,349.92s-43.9-9-56.82-22-51.65,0-51.65,0S329,311.18,345.8,309.89l14.2,9-5.17-9s28.41-18.08,41.32-7.75S423.28,326.68,416.82,349.92Z"/></clipPath><linearGradient id="Degradado_sin_nombre_29-17" x1="1405.89" y1="341.31" x2="1485.22" y2="341.31" gradientTransform="matrix(-1, 0, 0, 1, 1824, 0)" xlink:href="#Degradado_sin_nombre_29"/><linearGradient id="Degradado_sin_nombre_29-18" x1="595.77" y1="339.56" x2="650" y2="339.56" xlink:href="#Degradado_sin_nombre_29"/><linearGradient id="Degradado_sin_nombre_29-20" x1="691.26" y1="371.72" x2="622.62" y2="318.09" xlink:href="#Degradado_sin_nombre_29"/><clipPath id="clip-path-3"><path id="_Masque_3" data-name="&lt;Masque&gt;" class="cls-13" d="M634.43,326.14s8-31,25.19-54.94,20.31-52.07,55.67-68.59c0,0-22.77,3.67-29,1.47s-25.83,26.54-30.63,24.16,4.27,9.95,4.27,9.95l-9-5.6s-19.67,22-16.6,28.36a82.65,82.65,0,0,0,4.91,9.11l-9.42-3.29s-8.62,14.6-7.11,26.39S623.24,314.83,634.43,326.14Z"/></clipPath><linearGradient id="Degradado_sin_nombre_29-22" x1="780.63" y1="-182.27" x2="917.55" y2="-182.27" gradientTransform="translate(294.63 1050.08) rotate(-52.3)" xlink:href="#Degradado_sin_nombre_29"/><clipPath id="clip-path-4"><path id="_Masque_4" data-name="&lt;Masque&gt;" class="cls-19" d="M125.9,363.09s-15.16-13-20.65-26.56S91.36,320.12,90.5,312,71.37,301,70.09,291.46,53.91,275,53.91,275s18.46-9.22,26.53,2.83,6.36,21.65,17.33,23,24.41,11,26.63,26.32S138.05,350.41,125.9,363.09Z"/></clipPath><linearGradient id="Degradado_sin_nombre_29-24" x1="160.41" y1="487.95" x2="187.96" y2="487.95" gradientTransform="translate(-201.73 -85.24) rotate(-16.37)" xlink:href="#Degradado_sin_nombre_29"/><clipPath id="clip-path-5"><path id="_Masque_5" data-name="&lt;Masque&gt;" class="cls-20" d="M125.77,363.37s-19.16-3.05-36.61.69-33.84-1.32-51.57,14.32c0,0,7.55-11.76,7.85-15.77s21-7.92,20.83-11.17,4.49,4.78,4.49,4.78l-.94-6.33s17-5.6,19.77-2.36a50.07,50.07,0,0,1,3.87,4.94l.45-6s10.19-1.26,16.38,2.44S122.2,354.42,125.77,363.37Z"/></clipPath><linearGradient id="Degradado_sin_nombre_29-26" x1="1181.5" y1="394.48" x2="1264.45" y2="394.48" gradientTransform="matrix(-0.97, 0.24, 0.24, 0.97, 1173.78, -312.97)" xlink:href="#Degradado_sin_nombre_29"/><clipPath id="clip-path-6"><path id="_Masque_6" data-name="&lt;Masque&gt;" class="cls-21" d="M129.77,362.66s28.67-5.9,37.1-14.33,33.72,0,33.72,0-13.49-11-24.45-11.8l-9.27,5.9,3.37-5.9s-18.55-11.8-27-5.06S125.55,347.48,129.77,362.66Z"/></clipPath><linearGradient id="Degradado_sin_nombre_29-28" x1="128.93" y1="357.03" x2="180.73" y2="357.03" xlink:href="#Degradado_sin_nombre_29"/><clipPath id="clip-path-7"><path id="_Masque_7" data-name="&lt;Masque&gt;" class="cls-22" d="M129.86,362.93s5.78-22.36,18.17-39.63,14.65-37.56,40.15-49.47c0,0-16.42,2.64-20.95,1.06S148.61,294,145.15,292.32s3.08,7.17,3.08,7.17l-6.46-4s-14.18,15.87-12,20.45a59.61,59.61,0,0,0,3.54,6.57l-6.79-2.37s-6.22,10.53-5.13,19S121.79,354.78,129.86,362.93Z"/></clipPath><linearGradient id="Degradado_sin_nombre_29-30" x1="442.95" y1="-556.66" x2="541.7" y2="-556.66" gradientTransform="translate(294.63 1050.08) rotate(-52.3)" xlink:href="#Degradado_sin_nombre_29"/><linearGradient id="Degradado_sin_nombre_20-3" x1="114.8" y1="390.01" x2="147.52" y2="390.01" xlink:href="#Degradado_sin_nombre_20"/><linearGradient id="Degradado_sin_nombre_29-31" x1="88.23" y1="390.57" x2="121.83" y2="390.57" gradientTransform="translate(191.08 -38.2) rotate(21.49)" xlink:href="#Degradado_sin_nombre_29"/><linearGradient id="Degradado_sin_nombre_29-33" x1="147.39" y1="410.49" x2="104.86" y2="377.26" gradientTransform="translate(191.08 -38.2) rotate(21.49)" xlink:href="#Degradado_sin_nombre_29"/><linearGradient id="Degradado_sin_nombre_159-4" x1="546.14" y1="134.94" x2="590.57" y2="134.94" xlink:href="#Degradado_sin_nombre_159"/><linearGradient id="Degradado_sin_nombre_159-5" x1="358.97" y1="259.89" x2="382.22" y2="259.89" xlink:href="#Degradado_sin_nombre_159"/><linearGradient id="Degradado_sin_nombre_159-6" x1="374.9" y1="262.94" x2="647.27" y2="262.94" xlink:href="#Degradado_sin_nombre_159"/><clipPath id="clip-path-8"><circle class="cls-23" cx="514.79" cy="251.2" r="118.74"/></clipPath><linearGradient id="Degradado_sin_nombre_8" x1="472.91" y1="181.33" x2="397.98" y2="302.44" gradientUnits="userSpaceOnUse"><stop offset="0" stop-color="#d88b2f"/><stop offset="1" stop-color="#e6bd4a" stop-opacity="0"/></linearGradient><linearGradient id="Degradado_sin_nombre_159-7" x1="453.41" y1="236.93" x2="601.64" y2="236.93" xlink:href="#Degradado_sin_nombre_159"/><linearGradient id="Degradado_sin_nombre_159-8" x1="405.12" y1="249.88" x2="625.07" y2="249.88" xlink:href="#Degradado_sin_nombre_159"/><linearGradient id="Degradado_sin_nombre_173-2" x1="218.2" y1="210.13" x2="209.39" y2="217.08" xlink:href="#Degradado_sin_nombre_173"/><clipPath id="clip-path-9"><path id="_Masque_8" data-name="&lt;Masque&gt;" class="cls-24" d="M243.08,117.31s3.88-.48,6.32,6.25c3.38,9.32,3.91,10.45,4.63,18.38,0,0,13.22-1.94,17.77-6.49l2.28,1.37s-11.36,13.57-24.12,10C250,146.83,228.29,120.18,243.08,117.31Z"/></clipPath><linearGradient id="Degradado_sin_nombre_14-11" x1="2406.83" y1="-884.09" x2="2420.14" y2="-884.09" gradientTransform="matrix(-0.99, 0.17, 0.17, 0.99, 2776.65, 596.68)" xlink:href="#Degradado_sin_nombre_14"/><clipPath id="clip-path-10"><path id="_Masque_9" data-name="&lt;Masque&gt;" class="cls-25" d="M240.22,115.13c.35-.19,3.57-1,6.87,2.8s4.55,10.59,4.55,10.59-5.65.3-7.14,2.06a7.89,7.89,0,0,1-4.9,2.61S232.86,119.18,240.22,115.13Z"/></clipPath><linearGradient id="Degradado_sin_nombre_146-5" x1="2422.54" y1="-886.52" x2="2413.57" y2="-902.07" gradientTransform="matrix(-0.99, 0.17, 0.17, 0.99, 2776.65, 596.68)" xlink:href="#Degradado_sin_nombre_146"/><linearGradient id="Degradado_sin_nombre_173-3" x1="2461.87" y1="-842.76" x2="2457.77" y2="-849.86" gradientTransform="matrix(-0.89, 0.45, 0.45, 0.89, 2857.5, -144.64)" xlink:href="#Degradado_sin_nombre_173"/><clipPath id="clip-path-11"><path id="_Masque_10" data-name="&lt;Masque&gt;" class="cls-3" d="M236.08,107.73s1.55,8.61,7.79,8.57c0,0,3.55,8.84-2.29,14s-6.19,8.77-5.19,10.14-2.86,6.77-.22,9.5-16.8,11.93-21.17,8.26C212.13,155.79,202.3,117.66,236.08,107.73Z"/></clipPath><linearGradient id="Degradado_sin_nombre_146-7" x1="2490.4" y1="-921.42" x2="2470.03" y2="-956.71" xlink:href="#Degradado_sin_nombre_146"/><linearGradient id="Degradado_sin_nombre_146-8" x1="2476.55" y1="-919.25" x2="2467.5" y2="-934.94" xlink:href="#Degradado_sin_nombre_146"/><clipPath id="clip-path-12"><path id="_Masque_11" data-name="&lt;Masque&gt;" class="cls-4" d="M235,109.23l6.82-7.53s.67-13.49,7.29-14,17.39,6.52,7.12,22.06c0,0-3.33.8-7.13-2.33-1.57-1.29-6.18,11.27-6.18,11.27S233.13,116.73,235,109.23Z"/></clipPath><linearGradient id="Degradado_sin_nombre_14-13" x1="2429.63" y1="-961.89" x2="2426.48" y2="-967.36" xlink:href="#Degradado_sin_nombre_14"/><linearGradient id="Degradado_sin_nombre_173-4" x1="2433.23" y1="-959.55" x2="2425.29" y2="-973.31" gradientTransform="matrix(-0.89, 0.45, 0.45, 0.89, 2857.5, -144.64)" xlink:href="#Degradado_sin_nombre_173"/><linearGradient id="Degradado_sin_nombre_14-14" x1="2681.08" y1="705.66" x2="2679.16" y2="702.33" gradientTransform="matrix(0, -1, -1, 0, 951.11, 2778.84)" xlink:href="#Degradado_sin_nombre_14"/><clipPath id="clip-path-13"><path id="_Masque_12" data-name="&lt;Masque&gt;" class="cls-5" d="M278,193.44c-2.74-9.14-1.61-18.09-5.19-21.95s-14.86-21-26.83-20.43c-3.68.16-8.82-1.35-9.64-.13-2.73,4.1-9.33,5.64-9.33,5.64-3.9-.84-9.69-1.27-12.51,2.55-4.47,6.06-3.06,14.26-1.82,17.29s-2.15,11.05-.73,15.52-1.54,14.54-.38,15.71A2,2,0,0,1,212,210l4.91,1,.54-2.68a15.4,15.4,0,0,0,4.48-10.7c-.08-6.52,5.34-13.33,7.13-17.61s5.94-3.46,7.74-7.74c1.61-3.83,7.27-4.09,8.43-4.1a53.07,53.07,0,0,1,6.72,4c4.73,3.69,12.5,5.69,12.41,8.71s1.39,17.66,4.21,21.09,3.17,7.31,5.1,6.87l.55,2.15,4.84-1.64-.87-1.72S280.7,202.58,278,193.44Z"/></clipPath><linearGradient id="Degradado_sin_nombre_159-10" x1="225.21" y1="178.14" x2="269.7" y2="178.14" xlink:href="#Degradado_sin_nombre_159"/><linearGradient id="Degradado_sin_nombre_159-11" x1="208.47" y1="180.46" x2="215.04" y2="180.46" xlink:href="#Degradado_sin_nombre_159"/><linearGradient id="Degradado_sin_nombre_159-12" x1="269.73" y1="208.33" x2="284.94" y2="208.33" xlink:href="#Degradado_sin_nombre_159"/><linearGradient id="Degradado_sin_nombre_159-13" x1="208.47" y1="210.94" x2="221.59" y2="210.94" xlink:href="#Degradado_sin_nombre_159"/><clipPath id="clip-path-14"><path id="_Masque_13" data-name="&lt;Masque&gt;" class="cls-6" d="M189.25,145.27s-3.46,4.75,1.66,7.88l119.56-25.88,30.76-10.05-33.49,1Z"/></clipPath><linearGradient id="Degradado_sin_nombre_14-15" x1="306.78" y1="122.57" x2="347.05" y2="122.57" gradientTransform="matrix(1, 0, 0, 1, 0, 0)" xlink:href="#Degradado_sin_nombre_14"/><linearGradient id="Degradado_sin_nombre_173-5" x1="328.44" y1="118.17" x2="348.02" y2="118.17" xlink:href="#Degradado_sin_nombre_173"/><linearGradient id="Degradado_sin_nombre_173-6" x1="181.72" y1="149.84" x2="200.96" y2="149.84" xlink:href="#Degradado_sin_nombre_173"/><clipPath id="clip-path-15"><path id="_Masque_14" data-name="&lt;Masque&gt;" class="cls-7" d="M230.19,116.69s2.68,2.85-1.3,8.79c-5.52,8.24-6.11,9.33-12.09,14.6,0,0,12.23,5.39,20.42,3.11l1.37,1.82s-27.36,8.73-30-4.1C208.54,140.91,216.28,106.33,230.19,116.69Z"/></clipPath><linearGradient id="Degradado_sin_nombre_14-17" x1="2300.51" y1="-849.88" x2="2316.37" y2="-849.88" gradientTransform="matrix(-0.72, -0.69, -0.69, 0.72, 1291.14, 2342.51)" xlink:href="#Degradado_sin_nombre_14"/><linearGradient id="Degradado_sin_nombre_146-9" x1="2474.59" y1="-945.08" x2="2464.79" y2="-962.07" xlink:href="#Degradado_sin_nombre_146"/><linearGradient id="Degradado_sin_nombre_14-18" x1="237.21" y1="141.82" x2="244" y2="141.82" gradientTransform="matrix(1, 0, 0, 1, 0, 0)" xlink:href="#Degradado_sin_nombre_14"/><linearGradient id="Degradado_sin_nombre_14-19" x1="271.34" y1="134.41" x2="277.28" y2="134.41" gradientTransform="matrix(1, 0, 0, 1, 0, 0)" xlink:href="#Degradado_sin_nombre_14"/><linearGradient id="Degradado_sin_nombre_151" x1="222.51" y1="275.46" x2="265.58" y2="275.46" gradientUnits="userSpaceOnUse"><stop offset="0" stop-color="#9b4a7a"/><stop offset="1" stop-color="#bd677d"/></linearGradient><linearGradient id="Degradado_sin_nombre_14-20" x1="218.47" y1="283.66" x2="257.84" y2="283.66" gradientTransform="matrix(1, 0, 0, 1, 0, 0)" xlink:href="#Degradado_sin_nombre_14"/><clipPath id="clip-path-16"><path id="_Masque_15" data-name="&lt;Masque&gt;" class="cls-8" d="M257.43,403.49l.39,8.54s-7,1.94-8.92,1.94-1.55,1.55.39,1.55,12.8,1.16,12.8-.39a11.47,11.47,0,0,0-.78-3.49l1.16-7.76Z"/></clipPath><linearGradient id="Degradado_sin_nombre_173-7" x1="245.91" y1="416.75" x2="265.36" y2="416.75" xlink:href="#Degradado_sin_nombre_173"/><clipPath id="clip-path-17"><path id="_Masque_16" data-name="&lt;Masque&gt;" class="cls-9" d="M279.16,403.49c0,.39.39,8.92.39,8.92s-1.55,2.72-.78,2.72,8.54,0,9.31-.39-5.82-1.55-5.82-3.1,1.16-8.92,1.16-8.92Z"/></clipPath><linearGradient id="Degradado_sin_nombre_173-8" x1="276.54" y1="413.72" x2="290.64" y2="413.72" xlink:href="#Degradado_sin_nombre_173"/><clipPath id="clip-path-18"><path id="_Masque_17" data-name="&lt;Masque&gt;" class="cls-10" d="M263.64,307.66c0,.39-4.66,21.34-3.88,34.53S255.1,376.72,257,381s-3.88,20.17-.39,23.67h8.54s2.72-2.72,2.33-10.86c-.33-7,1.55-18.23,3.1-23.28s3.1-25.61,3.1-25.61,0,32.2,1.94,36.47-1.55,19.79,1.94,22.5c2.05,1.6,5.82,1.16,6.6,0s4.66-5,2.72-9.31.78-15.91,3.1-20.17-1.94-40.74,0-45,1.94-19.4-4.27-21.73Z"/></clipPath><linearGradient id="Degradado_sin_nombre_173-10" x1="263.64" y1="308.56" x2="290.29" y2="308.56" xlink:href="#Degradado_sin_nombre_173"/><linearGradient id="Degradado_sin_nombre_173-11" x1="272.17" y1="358.06" x2="277.33" y2="358.06" xlink:href="#Degradado_sin_nombre_173"/><linearGradient id="Degradado_sin_nombre_14-23" x1="259.79" y1="249.27" x2="280.85" y2="249.27" gradientTransform="matrix(1, 0, 0, 1, 0, 0)" xlink:href="#Degradado_sin_nombre_14"/><clipPath id="clip-path-19"><path id="_Masque_18" data-name="&lt;Masque&gt;" class="cls-11" d="M278.38,257.61s-1.94,2.33-10.09,3.49c0,0-10.09-.39-11.25,7s-5.43,7.37-4.27,11.25c0,0-3.1,3.1-3.49,5.43s0,1.55,0,1.55,6.6,3.88,6.6,7.37c0,0,2.33-.78,2.33-1.55s2.33,0,2.72-.78c0,0-1.16,8.15.78,10.48s-.39,5.82,1.94,7c0,0,9.7-1.16,11.64,0s8.92,5.43,11.25,0c0,0,1.55-3.49.78-5.43s0-3.1,1.16-5.82,1.16-9.31,2.72-13.58S302,260.33,278.38,257.61Z"/></clipPath><linearGradient id="Degradado_sin_nombre_13-7" x1="257.58" y1="292.87" x2="269.01" y2="292.87" xlink:href="#Degradado_sin_nombre_13"/><linearGradient id="Degradado_sin_nombre_13-8" x1="248.34" y1="289.24" x2="258.06" y2="289.24" xlink:href="#Degradado_sin_nombre_13"/><linearGradient id="Degradado_sin_nombre_13-9" x1="261.22" y1="308.92" x2="278.49" y2="308.92" xlink:href="#Degradado_sin_nombre_13"/><linearGradient id="Degradado_sin_nombre_13-10" x1="285.1" y1="288.06" x2="295.65" y2="288.06" xlink:href="#Degradado_sin_nombre_13"/><linearGradient id="Degradado_sin_nombre_173-12" x1="257.33" y1="240.69" x2="284.61" y2="240.69" xlink:href="#Degradado_sin_nombre_173"/><linearGradient id="Degradado_sin_nombre_14-24" x1="390.61" y1="285.31" x2="393.04" y2="285.31" gradientTransform="translate(558.67 -144.91) rotate(90)" xlink:href="#Degradado_sin_nombre_14"/><clipPath id="clip-path-20"><path id="_Masque_19" data-name="&lt;Masque&gt;" class="cls-12" d="M574.08,293.16,573,290l-1.26-6.33s-18.39-13.46-22.1-19.4-2.84-25.57-1.73-26.31a1.58,1.58,0,0,1,1.95,0s4.24,19.64,7.2,22.23S569.27,271,576.31,272.4l1.11-1.48,12.24-3.34h3.71s-1.24-16-2.21-17c-5.84-5.84-25.77-16.53-25.77-16.53l1-1s26.26,6.32,31.61,14.1c1.61,2.34,4.67,19.67,5.79,30.05S593,292,593,292,575.2,296.5,574.08,293.16Z"/></clipPath><linearGradient id="Degradado_sin_nombre_14-26" x1="589.7" y1="267.55" x2="612.17" y2="267.55" gradientTransform="matrix(1, 0, 0, 1, 0, 0)" xlink:href="#Degradado_sin_nombre_14"/><clipPath id="clip-path-21"><path id="_Masque_20" data-name="&lt;Masque&gt;" class="cls-14" d="M645.65,399.59c.74,0,6.67,8.53,6.67,8.53l-1.11,5.19s-5.93,2.22-3.71,3,7.79,0,7.79,0l3-9.27-4.08-2.23-4.45-8.53Z"/></clipPath><linearGradient id="Degradado_sin_nombre_173-13" x1="642.21" y1="410.35" x2="669.93" y2="410.35" xlink:href="#Degradado_sin_nombre_173"/><clipPath id="clip-path-22"><path id="_Masque_21" data-name="&lt;Masque&gt;" class="cls-15" d="M590,412.2l1.48,7.42s-10.38,1.85-11.87,2.22-.74,1.85,4.82,1.85,13,.37,13-1.11-1.85-3.71-1.85-3.71l-.37-9.27Z"/></clipPath><linearGradient id="Degradado_sin_nombre_173-14" x1="571.71" y1="422.29" x2="603.31" y2="422.29" xlink:href="#Degradado_sin_nombre_173"/><linearGradient id="Degradado_sin_nombre_173-15" x1="643.19" y1="411.35" x2="666.04" y2="411.35" xlink:href="#Degradado_sin_nombre_173"/><clipPath id="clip-path-23"><path id="_Masque_22" data-name="&lt;Masque&gt;" class="cls-16" d="M589.56,254l-9.72-6.63s-12.14,8-8.83,13.42c1.44,2.35,4.23,2.86,6.91,2.68,3,4.1.59,6.54-1.35,8,0,0,13.13,18,13.13-3.89,0,0-3.89-1.46-4-7.28Z"/></clipPath><linearGradient id="Degradado_sin_nombre_14-30" x1="579.81" y1="273.39" x2="594.08" y2="273.39" gradientTransform="matrix(1, 0, 0, 1, 0, 0)" xlink:href="#Degradado_sin_nombre_14"/><clipPath id="clip-path-24"><path id="_Masque_23" data-name="&lt;Masque&gt;" class="cls-17" d="M589.7,314.75s10,.29,21.84-6.39c0,0,11.5,5.56,13,18.17s4.08,21.51,8.9,24.1,5.93,14.83,7.42,18.91,10.38,10.38,9.27,17.06a8.57,8.57,0,0,0,4.08,9.27L646,401.81s-8.53-7.79-9.64-11.12-16.69-24.47-19.28-29.3S605.26,342,605.26,342s-3.73,16.81-7.81,19.78-4.82,10-6.67,11.12,4.08,6.3,2.6,10.75,6.67,17.8,5.93,20.4,2.22,5.19,1.48,6.3S589.66,414,589.66,414,573,376.23,574.08,368.44,584.84,327.4,589.7,314.75Z"/></clipPath><linearGradient id="Degradado_sin_nombre_13-12" x1="605.26" y1="353.17" x2="625.65" y2="353.17" xlink:href="#Degradado_sin_nombre_13"/><linearGradient id="Degradado_sin_nombre_13-13" x1="588.24" y1="312.86" x2="615.54" y2="312.86" xlink:href="#Degradado_sin_nombre_13"/><linearGradient id="Degradado_sin_nombre_13-14" x1="587.93" y1="383.54" x2="609.15" y2="383.54" xlink:href="#Degradado_sin_nombre_13"/><linearGradient id="Degradado_sin_nombre_13-15" x1="637.46" y1="378.79" x2="658.26" y2="378.79" xlink:href="#Degradado_sin_nombre_13"/><clipPath id="clip-path-25"><path id="_Masque_24" data-name="&lt;Masque&gt;" class="cls-18" d="M574.08,271.65s5.19,4.08,6.67,14.09-6.83,6-9.05-2.11c0,0-1,12.8,6.81,18s4.19,7.5,8.27,9.73,2.88,3.32,2.88,3.32,7.42,3.71,13.35,0a52.27,52.27,0,0,0,8.53-6.3s1.48-7-1.11-11.12-6.67-20-6.67-20-8.53-3-10.38-9.64h-3.71s5.19,19.65-12.24,3.34A4.74,4.74,0,0,0,574.08,271.65Z"/></clipPath><linearGradient id="Degradado_sin_nombre_159-15" x1="580.6" y1="284.7" x2="617.99" y2="284.7" xlink:href="#Degradado_sin_nombre_159"/><linearGradient id="Degradado_sin_nombre_159-16" x1="565.98" y1="297.13" x2="596.89" y2="297.13" xlink:href="#Degradado_sin_nombre_159"/><linearGradient id="Degradado_sin_nombre_173-16" x1="-848.07" y1="607.54" x2="-798.08" y2="607.54" gradientTransform="matrix(0.92, 0.38, -0.38, 0.92, 1587.93, 23.04)" xlink:href="#Degradado_sin_nombre_173"/><linearGradient id="Degradado_sin_nombre_14-31" x1="545.08" y1="234.23" x2="551.32" y2="234.23" gradientTransform="matrix(1, 0, 0, 1, 0, 0)" xlink:href="#Degradado_sin_nombre_14"/><linearGradient id="Degradado_sin_nombre_14-32" x1="561.3" y1="231.22" x2="568.14" y2="231.22" gradientTransform="matrix(1, 0, 0, 1, 0, 0)" xlink:href="#Degradado_sin_nombre_14"/></defs><title>Mesa de trabajo 1</title><g class="cls-26"><g id="OBJECTS"><path class="cls-27" d="M653.05,400.79H126.9S-.56,264.16,54.5,128.54s293.16-22.94,313,65.26,154,39.77,205-1S829,219.8,653.05,400.79Z"/><polygon class="cls-28" points="42.38 103 208.37 117.61 208.37 209.48 42.38 202.18 42.38 103"/><polygon class="cls-28" points="71.75 168.92 185 178.89 185 241.56 71.75 236.58 71.75 168.92"/><polygon class="cls-28" points="265.75 147.92 379 157.89 379 220.56 265.75 215.58 265.75 147.92"/><polygon class="cls-28" points="166.79 323 257.96 331.03 257.96 381.48 166.79 377.47 166.79 323"/><polygon class="cls-29" points="76.49 220.58 153.8 227.39 153.8 270.18 76.49 266.78 76.49 220.58"/><polygon class="cls-30" points="140.94 329.32 218.25 336.13 218.25 378.92 140.94 375.52 140.94 329.32"/><ellipse class="cls-31" cx="269.49" cy="413.95" rx="34.77" ry="4.38"/><ellipse class="cls-32" cx="131.39" cy="418.57" rx="52.76" ry="4.13"/><path class="cls-33" d="M669,418.09c0,3.63-23.63,11.91-50.09,11.91s-72.94-7.56-72.94-11.18,48.68-7.29,75.13-7.29S669,414.46,669,418.09Z"/><path class="cls-34" d="M410.33,221.74l6.74,137.38a3.42,3.42,0,0,1-3.42,3.59H103.77a3.42,3.42,0,0,1-3.42-3.42V187.92Z"/><path class="cls-35" d="M372.16,197.89v-3.06c-4.69,0-8.66-7.47-8.66-16.3s4-16.3,8.66-16.3v-3.06c-6.57,0-11.72,8.5-11.72,19.36S365.59,197.89,372.16,197.89Z"/><path class="cls-36" d="M171.42,171.91v-3.06c-4.69,0-8.66-7.47-8.66-16.3s4-16.3,8.66-16.3v-3.06c-6.57,0-11.72,8.5-11.72,19.36S164.85,171.91,171.42,171.91Z"/><path class="cls-37" d="M100.35,150.61v29.16l310,33.82-1.09-22.28a3.42,3.42,0,0,0-3-3.22l-302-40.87A3.42,3.42,0,0,0,100.35,150.61Zm268.24,43.47c0-3.24,1.6-5.86,3.57-5.86s3.57,2.62,3.57,5.86-1.6,5.86-3.57,5.86S368.59,197.31,368.59,194.07ZM167.35,167.85c0-3.93,1.94-7.11,4.33-7.11s4.33,3.19,4.33,7.11-1.94,7.11-4.33,7.11S167.35,171.78,167.35,167.85Z"/><path class="cls-38" d="M171.42,171.91c6.57,0,11.72-8.5,11.72-19.36s-5.15-19.36-11.72-19.36v3.06c4.69,0,8.66,7.47,8.66,16.3s-4,16.3-8.66,16.3Z"/><path class="cls-39" d="M372.16,197.89c6.57,0,11.72-8.5,11.72-19.36s-5.15-19.36-11.72-19.36v3.06c4.69,0,8.66,7.47,8.66,16.3s-4,16.3-8.66,16.3Z"/><rect class="cls-40" x="255.45" y="89.2" width="1.53" height="312.65" transform="translate(-8.18 482.22) rotate(-85.61)"/><rect class="cls-40" x="256.6" y="130.65" width="1.53" height="314.33" transform="translate(-41.43 532.34) rotate(-87.49)"/><rect class="cls-40" x="256.6" y="173.81" width="1.53" height="314.11" transform="translate(-79.29 580.61) rotate(-88.69)"/><rect class="cls-40" x="360.69" y="215.82" width="1.53" height="147.05" transform="translate(-18.25 24.4) rotate(-3.77)"/><rect class="cls-40" x="303.38" y="211.31" width="1.53" height="151.48" transform="translate(-13.11 14.56) rotate(-2.68)"/><rect class="cls-40" x="245.81" y="205.24" width="1.53" height="157.51" transform="matrix(1, -0.03, 0.03, 1, -9.12, 8.19)"/><rect class="cls-40" x="178.05" y="196.62" width="1.53" height="166.35" transform="translate(-1.63 1.05) rotate(-0.33)"/><path class="cls-41" d="M413.65,364H103.77a4.7,4.7,0,0,1-4.7-4.7V186.5l312.47,34.1,6.8,138.46a4.7,4.7,0,0,1-4.69,4.93Zm-312-174.64V359.29a2.15,2.15,0,0,0,2.15,2.15H413.65a2.15,2.15,0,0,0,2.14-2.25l-6.69-136.29Z"/><circle class="cls-42" cx="510.92" cy="262.72" r="127.4"/><circle class="cls-43" cx="638.32" cy="316.21" r="26.74"/><circle class="cls-43" cx="575.11" cy="369.7" r="26.74"/><circle class="cls-43" cx="378.17" cy="234.03" r="16.05"/><circle class="cls-43" cx="647.08" cy="316.21" r="9.73"/><polygon class="cls-34" points="122.75 214.58 219.78 223.13 219.78 276.83 122.75 272.56 122.75 214.58"/><polygon class="cls-34" points="202.14 308.67 272.65 314.88 272.65 353.9 202.14 350.8 202.14 308.67"/><polygon class="cls-44" points="278.49 214.58 355.8 221.39 355.8 264.18 278.49 260.78 278.49 214.58"/><polygon class="cls-45" points="261.65 298.71 316.23 303.51 316.23 333.72 261.65 331.32 261.65 298.71"/><polygon class="cls-46" points="120.94 259.32 198.25 266.13 198.25 308.92 120.94 305.52 120.94 259.32"/><path id="_Masque_25" data-name="&lt;Masque&gt;" class="cls-1" d="M622.53,328s43.9-9,56.82-22,51.65,0,51.65,0S710.34,289.3,693.55,288l-14.2,9,5.17-9s-28.41-18.08-41.32-7.75S616.07,304.79,622.53,328Z"/><g class="cls-47"><path class="cls-48" d="M621.24,328c1.29,0,7.75-31,22-25.83s19.37,0,19.37,0l2.58,7.75s16.79-14.81,32.93-7.41-51,35.81-51,35.81L621.24,328"/></g><path id="_Masque_26" data-name="&lt;Masque&gt;" class="cls-2" d="M416.82,349.92s-43.9-9-56.82-22-51.65,0-51.65,0S329,311.18,345.8,309.89l14.2,9-5.17-9s28.41-18.08,41.32-7.75S423.28,326.68,416.82,349.92Z"/><g class="cls-49"><path class="cls-50" d="M418.11,349.92c-1.29,0-7.75-31-22-25.83s-19.37,0-19.37,0l-2.58,7.75s-16.79-14.81-32.93-7.41,51,35.81,51,35.81l25.83-10.33"/></g><path class="cls-51" d="M595.77,346.45s11.62,14.2,27.12,5.17S650,340,650,340l-37.45-15.5S598.35,331,595.77,346.45Z"/><path class="cls-52" d="M595.77,346.45s11.62,14.2,27.12,5.17S650,340,650,340l-37.45-15.5S598.35,331,595.77,346.45Z"/><path class="cls-53" d="M612.55,336.12V324.5s7.75-3.87,24.53,0,15.5-10.33,27.12-6.46,33.57,19.37,34.87,33.57,1.29,43.9-9,55.53c0,0,2.58-6.46-5.17-16.79s-22-28.41-18.08-28.41,9-10.33,9-10.33l-19.37,2.58s-14.2-16.79-27.12-14.2S612.55,336.12,612.55,336.12Z"/><path id="_Masque_27" data-name="&lt;Masque&gt;" class="cls-13" d="M634.43,326.14s8-31,25.19-54.94,20.31-52.07,55.67-68.59c0,0-22.77,3.67-29,1.47s-25.83,26.54-30.63,24.16,4.27,9.95,4.27,9.95l-9-5.6s-19.67,22-16.6,28.36a82.65,82.65,0,0,0,4.91,9.11l-9.42-3.29s-8.62,14.6-7.11,26.39S623.24,314.83,634.43,326.14Z"/><g class="cls-54"><path class="cls-55" d="M636.93,328.07c-2.5-1.93-8-15.47-3.4-26.55a106.51,106.51,0,0,0,5.94-18l10.4-6.58-9-.34S643.1,265.07,655,253a88.35,88.35,0,0,0,17.17-23.93l6.47,3.67.15-10.51s15.35-14.71,30.86-10.7-52.42,105.65-52.42,105.65Z"/></g><path id="_Masque_28" data-name="&lt;Masque&gt;" class="cls-19" d="M125.9,363.09s-15.16-13-20.65-26.56S91.36,320.12,90.5,312,71.37,301,70.09,291.46,53.91,275,53.91,275s18.46-9.22,26.53,2.83,6.36,21.65,17.33,23,24.41,11,26.63,26.32S138.05,350.41,125.9,363.09Z"/><g class="cls-56"><path class="cls-57" d="M80,304.5c2.78-.82,14.91,7,24.17,17.94s3,18.08,10,21.33,11.72,19.32,11.72,19.32L94.57,346.49Z"/></g><path id="_Masque_29" data-name="&lt;Masque&gt;" class="cls-20" d="M125.77,363.37s-19.16-3.05-36.61.69-33.84-1.32-51.57,14.32c0,0,7.55-11.76,7.85-15.77s21-7.92,20.83-11.17,4.49,4.78,4.49,4.78l-.94-6.33s17-5.6,19.77-2.36a50.07,50.07,0,0,1,3.87,4.94l.45-6s10.19-1.26,16.38,2.44S122.2,354.42,125.77,363.37Z"/><g class="cls-58"><path class="cls-59" d="M126.24,365.22c-.47-1.85-6.66-8.18-13.92-8.31a64.54,64.54,0,0,1-11.44-1.06L94.71,360l2-5.1s-7-1.53-16.53,2.2a53.53,53.53,0,0,1-17.45,3.74l.47,4.48-5.88-2.46s-11.89,5-13.41,14.55,71.37-3.54,71.37-3.54Z"/></g><path id="_Masque_30" data-name="&lt;Masque&gt;" class="cls-21" d="M129.77,362.66s28.67-5.9,37.1-14.33,33.72,0,33.72,0-13.49-11-24.45-11.8l-9.27,5.9,3.37-5.9s-18.55-11.8-27-5.06S125.55,347.48,129.77,362.66Z"/><g class="cls-60"><path class="cls-61" d="M128.93,362.66c.84,0,5.06-20.23,14.33-16.86s12.65,0,12.65,0l1.69,5.06s11-9.67,21.5-4.83-33.3,23.38-33.3,23.38l-16.86-6.74"/></g><path id="_Masque_31" data-name="&lt;Masque&gt;" class="cls-22" d="M129.86,362.93s5.78-22.36,18.17-39.63,14.65-37.56,40.15-49.47c0,0-16.42,2.64-20.95,1.06S148.61,294,145.15,292.32s3.08,7.17,3.08,7.17l-6.46-4s-14.18,15.87-12,20.45a59.61,59.61,0,0,0,3.54,6.57l-6.79-2.37s-6.22,10.53-5.13,19S121.79,354.78,129.86,362.93Z"/><g class="cls-62"><path class="cls-63" d="M131.66,364.33c-1.8-1.39-5.75-11.16-2.45-19.15a76.82,76.82,0,0,0,4.28-13l7.5-4.74-6.52-.25s1.64-8.32,10.26-17A63.72,63.72,0,0,0,157.12,293l4.66,2.65.11-7.58s11.07-10.61,22.26-7.72-37.81,76.2-37.81,76.2Z"/></g><path class="cls-64" d="M122.7,362.66s-10.24,54.45-7.41,55.26c2.33.67,23,.23,30.27.06a2,2,0,0,0,1.9-2.47l-12.82-53.76Z"/><path class="cls-65" d="M128.5,361.52S132,372.34,143,370.65a65.25,65.25,0,0,1,18.27-.54l-18.07-17.44S133.51,353.17,128.5,361.52Z"/><path class="cls-66" d="M128.5,361.52S132,372.34,143,370.65a65.25,65.25,0,0,1,18.27-.54l-18.07-17.44S133.51,353.17,128.5,361.52Z"/><path class="cls-67" d="M140.53,359.37l2.64-6.7s5.35-.47,14.15,5.57,11.28-2.44,17.1,2.43,15,18.79,12.48,27.27-9.22,25.61-17.82,30c0,0,3-3.14.83-10.85s-6.21-21.36-4-20.48,7.56-3.9,7.56-3.9l-11.75-2.91s-4.38-12.9-12.41-14.35S140.53,359.37,140.53,359.37Z"/><path class="cls-68" d="M546.14,132.46s-.41-14.35,10.28-13.11,51.39,18.09,25.9,31.25C582.32,150.6,559.7,133.24,546.14,132.46Z"/><path class="cls-69" d="M382.22,284.32s-14.62,8.52-19.38-3.24-10.27-63.42,17.74-44.45C380.58,236.62,375.37,269.83,382.22,284.32Z"/><circle class="cls-70" cx="511.09" cy="262.94" r="136.19"/><circle class="cls-71" cx="514.79" cy="255.83" r="123.37"/><circle class="cls-72" cx="514.79" cy="251.2" r="118.74"/><g class="cls-73"><path class="cls-74" d="M501,108l10,155L378,304S318,146,501,108Z"/><polygon class="cls-75" points="385 280 634 139 650 156 396 324 385 280"/><polygon class="cls-75" points="422 340 656 213 638 245 427 350 422 340"/><path class="cls-75" d="M391,268c2-4,211-123,211-123l-11-6Z"/><path class="cls-75" d="M385,242c2-2,183-111,183-111l-29-14L387,218Z"/><path class="cls-75" d="M515,379,656,261l-9,62S593,406,515,379Z"/></g><path class="cls-76" d="M601.64,203.22l-46.71,24.1-37.24,31a7.31,7.31,0,0,0-10.48-.29l-35.81-33.22-18-5.22,9.67,18.15L506,259.61a7.33,7.33,0,1,0,12.46-.29l45-26.06Z"/><path class="cls-77" d="M519.83,144.22a6.37,6.37,0,1,1-6.37-6.37A6.37,6.37,0,0,1,519.83,144.22ZM520,349.17a6.37,6.37,0,1,0,6.37,6.37A6.37,6.37,0,0,0,520,349.17ZM411.49,248a6.37,6.37,0,1,0,6.37,6.37A6.37,6.37,0,0,0,411.49,248Zm52.62-92.09A3.08,3.08,0,1,0,467.2,159,3.08,3.08,0,0,0,464.12,155.94Zm-37.82,41.11a3.08,3.08,0,1,0,3.08,3.08A3.08,3.08,0,0,0,426.29,197.05Zm0,106.48a3.08,3.08,0,1,0,3.08,3.08A3.08,3.08,0,0,0,426.29,303.54Zm41.11,35.36a3.08,3.08,0,1,0,3.08,3.08A3.08,3.08,0,0,0,467.41,338.89Zm96.2,0a3.08,3.08,0,1,0,3.08,3.08A3.08,3.08,0,0,0,563.61,338.89Zm38.23-46.46a3.08,3.08,0,1,0,3.08,3.08A3.08,3.08,0,0,0,601.85,292.44Zm3.29-98.67a3.08,3.08,0,1,0,3.08,3.08A3.08,3.08,0,0,0,605.13,193.76Zm-41.52-34.95a3.08,3.08,0,1,0,3.08,3.08A3.08,3.08,0,0,0,563.61,158.82Zm55.09,82.64a6.37,6.37,0,1,0,6.37,6.37A6.37,6.37,0,0,0,618.7,241.46Z"/><path class="cls-78" d="M213.09,208.26s-5.46,6.83-4.55,7.74,8.19,2.73,8.19.91v-8.65Z"/><path id="_Masque_32" data-name="&lt;Masque&gt;" class="cls-24" d="M243.08,117.31s3.88-.48,6.32,6.25c3.38,9.32,3.91,10.45,4.63,18.38,0,0,13.22-1.94,17.77-6.49l2.28,1.37s-11.36,13.57-24.12,10C250,146.83,228.29,120.18,243.08,117.31Z"/><g class="cls-79"><path class="cls-80" d="M254.92,136.89a6.19,6.19,0,0,0-7.12,1.23c-3.3,3.27-5.93,1.41-5.93,1.41l3.41-4.84,5.37-2.47,2.13,1.28Z"/></g><path id="_Masque_33" data-name="&lt;Masque&gt;" class="cls-25" d="M240.22,115.13c.35-.19,3.57-1,6.87,2.8s4.55,10.59,4.55,10.59-5.65.3-7.14,2.06a7.89,7.89,0,0,1-4.9,2.61S232.86,119.18,240.22,115.13Z"/><g class="cls-81"><path class="cls-82" d="M247.1,117.92c0,.74,3,11.42-6.39,17.67s-4.24-8.92-4.24-8.92l5.35-4.78,5.28-4"/></g><path class="cls-83" d="M277.86,208.36s2.84,6.66,9.83,4.47c0,0,3-.45-.52,2.7s-5.26,2.94-8.39,2.09-6.26-1.15-6-2.34,2.76-7.34,2.76-7.34Z"/><path id="_Masque_34" data-name="&lt;Masque&gt;" class="cls-3" d="M236.08,107.73s1.55,8.61,7.79,8.57c0,0,3.55,8.84-2.29,14s-6.19,8.77-5.19,10.14-2.86,6.77-.22,9.5-16.8,11.93-21.17,8.26C212.13,155.79,202.3,117.66,236.08,107.73Z"/><g class="cls-84"><path class="cls-85" d="M234.86,117.11s1.08,10.54-6.37,16.87-8.48,5.15-10.33,8.23-4.4,3.94-3.19,7.16,5.35,13.07,4.34,15.29-7.16-2.34-7.16-2.34l-4.7-18.52,3.53-7.34,12-11.64,11.87-7.72"/><path class="cls-86" d="M237.35,136.31c-.85,0-4.58,1.9-2.71,3.08s-4.74,4.11-3.37,5.12,1.19,7.2-4.63,11.8,11.47-5.88,11.47-5.88l3-8.35-.54-4.42Z"/></g><path id="_Masque_35" data-name="&lt;Masque&gt;" class="cls-4" d="M235,109.23l6.82-7.53s.67-13.49,7.29-14,17.39,6.52,7.12,22.06c0,0-3.33.8-7.13-2.33-1.57-1.29-6.18,11.27-6.18,11.27S233.13,116.73,235,109.23Z"/><g class="cls-87"><path class="cls-88" d="M249,92.86s7.53,8.13,12.43,1.8-9.9-5.22-9.9-5.22Z"/></g><path class="cls-89" d="M246.84,100.36s-3.39,1.72-5.1.88c0,0,.32-3.58-1.39-5.27s-1.07-8.84,2.68-8.18,5.41-7,9.67-4.48,2.59,5.94,8.7,3.69,7.33,1.83,6.66,4.73c-.85,3.73-6.62,2.08-4.05,5.47s-3.66,2.33-3.66,2.33.61-3.34-.69-5.46c0,0-.92,3.67-5,1.48s-5.11-1.67-5.11-1.67,1.89,3.73-2.36,4.61"/><ellipse class="cls-90" cx="247.09" cy="98.74" rx="2.47" ry="1.71" transform="translate(76.43 302.89) rotate(-71.89)"/><path id="_Masque_36" data-name="&lt;Masque&gt;" class="cls-5" d="M278,193.44c-2.74-9.14-1.61-18.09-5.19-21.95s-14.86-21-26.83-20.43c-3.68.16-8.82-1.35-9.64-.13-2.73,4.1-9.33,5.64-9.33,5.64-3.9-.84-9.69-1.27-12.51,2.55-4.47,6.06-3.06,14.26-1.82,17.29s-2.15,11.05-.73,15.52-1.54,14.54-.38,15.71A2,2,0,0,1,212,210l4.91,1,.54-2.68a15.4,15.4,0,0,0,4.48-10.7c-.08-6.52,5.34-13.33,7.13-17.61s5.94-3.46,7.74-7.74c1.61-3.83,7.27-4.09,8.43-4.1a53.07,53.07,0,0,1,6.72,4c4.73,3.69,12.5,5.69,12.41,8.71s1.39,17.66,4.21,21.09,3.17,7.31,5.1,6.87l.55,2.15,4.84-1.64-.87-1.72S280.7,202.58,278,193.44Z"/><g class="cls-91"><path class="cls-92" d="M229.89,178.53s1.43-3.34.94-5.77-2.43-9.24-4.86-9.24,3.4-1,6.81,1,4.38-.49,3.89-2.92-10.68-5.31-11.42-5.33,9.32-3.7,9.32-3.7,2.59,4.17,6,2.22-1.95,6.81,3.89,8.27,3.89,6.81,9.73,7.29,10.21,4.86,10.7,7.29,2.54,21.91,4.67,25.79-19.26-30.16-24.61-27.73-14.52,5.21-15,2.85"/><path class="cls-93" d="M213.81,159.15s-3.4,9.73,0,16-1.46,10.21-.49,13.62-.51,7.63-.74,11.35-4.12-.17-4.12-.17l1.46-22.37-1.46-13.13Z"/><path class="cls-94" d="M270.22,208.26c.49.49,3.89,2.43,10.7-2.92s2.92,2.92,2.92,2.92l-9.73,4.86-4.38-1.95Z"/><path class="cls-95" d="M209.92,208.26h11.67l-1.46,5.35-8.27-.49-3.4-3.89,1-1"/></g><path id="_Masque_37" data-name="&lt;Masque&gt;" class="cls-6" d="M189.25,145.27s-3.46,4.75,1.66,7.88l119.56-25.88,30.76-10.05-33.49,1Z"/><g class="cls-96"><path class="cls-97" d="M308.64,114.9S302.31,128,313,130s33.55-7.29,33.55-7.29l.49-7.78H308.64Z"/><path class="cls-98" d="M329.55,111s-3.89,12.16,2.92,14.1S348,114.9,348,114.9Z"/><path class="cls-99" d="M195.34,141.64s-3.89,8.75,3.89,14.1-13.13,3.4-13.13,3.4l-4.38-10.21,3.4-8.75Z"/></g><path id="_Masque_38" data-name="&lt;Masque&gt;" class="cls-7" d="M230.19,116.69s2.68,2.85-1.3,8.79c-5.52,8.24-6.11,9.33-12.09,14.6,0,0,12.23,5.39,20.42,3.11l1.37,1.82s-27.36,8.73-30-4.1C208.54,140.91,216.28,106.33,230.19,116.69Z"/><g class="cls-100"><path class="cls-101" d="M223.87,135.33a7.37,7.37,0,0,0-6.19-6c-5.46-.86-5.53-4.71-5.53-4.71l7-.13,6.15,3.41.26,2.95Z"/></g><path class="cls-102" d="M232.62,111.84c.48.25,3.76,3.21,1.93,9.69s-8.44,12.81-8.44,12.81-4.48-6.06-7.52-6.42a10.5,10.5,0,0,1-6.49-3.54S222.72,106.62,232.62,111.84Z"/><path class="cls-103" d="M237.21,143.19s0-1.82.91-2.28.91-2.28,1.37-2.28.91,1.37,0,2.28a1.58,1.58,0,0,0-.44,1.81l5-1.07s-.42,2.9-2.24,2.9a11.11,11.11,0,0,0-3.19.46"/><path class="cls-104" d="M274.07,136.82s-2.73.91-2.73,0a3.24,3.24,0,0,1,1.37-2.73c.91-.45,1.46-1.87,2.28-2.28s3.19-.46,1.93,2.72A3.68,3.68,0,0,1,274.07,136.82Z"/><path class="cls-105" d="M265.58,261.88v-1.16H222.51V290.2h43.06Z"/><path class="cls-106" d="M226,280.89s18.23,17.46,26.38,15.91c0,0,5.82-3.88,5.43-7.37s-8.54-3.1-8.54-3.1-18.07-4-22.23-8a9.33,9.33,0,0,0-.61-3.33c-.61-1.21,0-4.54,0-4.54h-.3c-.61,0-1.82,2.42-1.82,3s-1.82-.61-1.82-.61V271s-1.82.61-2.12,1.51-2.42,3.63-1.82,4.24,2.12,4.85,3,4.54a34.76,34.76,0,0,1,4.24-.61"/><path id="_Masque_39" data-name="&lt;Masque&gt;" class="cls-8" d="M257.43,403.49l.39,8.54s-7,1.94-8.92,1.94-1.55,1.55.39,1.55,12.8,1.16,12.8-.39a11.47,11.47,0,0,0-.78-3.49l1.16-7.76Z"/><g class="cls-107"><path class="cls-108" d="M262,411s-2.92,2.92-5.35,0-10.7,3.89-10.7,3.89l16.53,8.27,2.92-9.24-4-2.82"/></g><path id="_Masque_40" data-name="&lt;Masque&gt;" class="cls-9" d="M279.16,403.49c0,.39.39,8.92.39,8.92s-1.55,2.72-.78,2.72,8.54,0,9.31-.39-5.82-1.55-5.82-3.1,1.16-8.92,1.16-8.92Z"/><g class="cls-109"><path class="cls-110" d="M279.46,412.49s2.43,1,3.4-1,7.78,2.92,7.78,2.92l-3.4,1.94-10.7-1.46,2.92-2.43"/><path class="cls-111" d="M278.49,405.2s3.89.49,5.35-.49-1.46-2.43-1.46-2.43l-4.49,1.79Z"/></g><path id="_Masque_41" data-name="&lt;Masque&gt;" class="cls-10" d="M263.64,307.66c0,.39-4.66,21.34-3.88,34.53S255.1,376.72,257,381s-3.88,20.17-.39,23.67h8.54s2.72-2.72,2.33-10.86c-.33-7,1.55-18.23,3.1-23.28s3.1-25.61,3.1-25.61,0,32.2,1.94,36.47-1.55,19.79,1.94,22.5c2.05,1.6,5.82,1.16,6.6,0s4.66-5,2.72-9.31.78-15.91,3.1-20.17-1.94-40.74,0-45,1.94-19.4-4.27-21.73Z"/><g class="cls-112"><path class="cls-113" d="M263.64,307.66a15.91,15.91,0,0,1,12.42,3.2c5.35,4.38,12.64,2.92,14.1-1s-9.73-6.32-9.73-6.32l-16.79,4.09"/><path class="cls-114" d="M272.71,356.29s.92-15.76,1.4-16.25a27,27,0,0,0,1.94-3.89,7.53,7.53,0,0,0,1-2.92s-1.46,8.27,0,12.64S274.11,358,275.08,361s-1,18.48.49,20.42-3.4,1.46-3.4,1.46l1-26.74"/></g><path class="cls-115" d="M280.85,241.53,270.36,234s-13.49,8.49-10,14.49c1.52,2.61,4.56,3.23,7.51,3.1.47,3.19.68,9.24-1.51,12.89,0,0,8.49,0,13-4.5a50.74,50.74,0,0,1-2.9-11.69Z"/><path id="_Masque_42" data-name="&lt;Masque&gt;" class="cls-11" d="M278.38,257.61s-1.94,2.33-10.09,3.49c0,0-10.09-.39-11.25,7s-5.43,7.37-4.27,11.25c0,0-3.1,3.1-3.49,5.43s0,1.55,0,1.55,6.6,3.88,6.6,7.37c0,0,2.33-.78,2.33-1.55s2.33,0,2.72-.78c0,0-1.16,8.15.78,10.48s-.39,5.82,1.94,7c0,0,9.7-1.16,11.64,0s8.92,5.43,11.25,0c0,0,1.55-3.49.78-5.43s0-3.1,1.16-5.82,1.16-9.31,2.72-13.58S302,260.33,278.38,257.61Z"/><g class="cls-116"><path class="cls-117" d="M257.58,294.82l3.4-3.4s3.4,0,3.4-3.89,3.89-5.84,3.89-7.29c0,0,1.95,3.4-.49,5.35s.49,5.84-1,6.81-5.35,7.29-3.4,9.24-2.92,3.89-2.92,3.89Z"/><path class="cls-118" d="M249.31,283.15s8.75,4.86,8.75,8.75-1.95,3.4-1.95,3.4l-3.4-3.89-4.38-6.32Z"/><path class="cls-119" d="M278,310.86c-.49,0-3.89-4.38-6.81-4.38s-6.81,1.95-9.24,1,1.95,3.4,1.95,3.4l8.75.49h5.84"/><path class="cls-120" d="M288.21,302.11s-4.86,4.38-2.43,0,1.46-8.27,2.92-10.7-1.46-5.84,1-7.78,4.86-6.81,5.84-11.18-3.4,29.66-3.4,29.66Z"/></g><path class="cls-121" d="M282.86,239.38c-4.86-3.89-.49-5.84-5.35-5.35s-6.81-11.18-9.73-2.92c0,0-2.92,3.4,1.95,7.29s4.38,3.4,4.38,3.4-.8,2.09-1.21,3.2a1.2,1.2,0,0,1-1,.78c-1.69.18-4.7.29-6.05-1.06-1.95-1.94-2.93-3.47-3.65-3.68s-6.07,6.11-4.62,9.52,6.32,2.92,7.78,1.95a4.91,4.91,0,0,1,2.43-1,50.43,50.43,0,0,1,5.34-4.66c.55,1,1.61,2.16,3.42,1.25,0,0,3.4.49,3.89-1.46S287.73,243.27,282.86,239.38Z"/><ellipse class="cls-122" cx="273.38" cy="246.92" rx="1.7" ry="1.22" transform="translate(-47.43 65.86) rotate(-12.65)"/><polygon class="cls-34" points="299.75 323.02 396.78 331.56 396.78 385.26 299.75 380.99 299.75 323.02"/><path id="_Masque_43" data-name="&lt;Masque&gt;" class="cls-12" d="M574.08,293.16,573,290l-1.26-6.33s-18.39-13.46-22.1-19.4-2.84-25.57-1.73-26.31a1.58,1.58,0,0,1,1.95,0s4.24,19.64,7.2,22.23S569.27,271,576.31,272.4l1.11-1.48,12.24-3.34h3.71s-1.24-16-2.21-17c-5.84-5.84-25.77-16.53-25.77-16.53l1-1s26.26,6.32,31.61,14.1c1.61,2.34,4.67,19.67,5.79,30.05S593,292,593,292,575.2,296.5,574.08,293.16Z"/><g class="cls-123"><path class="cls-124" d="M593.76,253.42c-.17.55,4.2,19.52,12,16.12s6.32,12.16,6.32,12.16l-19-2.43-3.4-19,4.06-6.88"/></g><path id="_Masque_44" data-name="&lt;Masque&gt;" class="cls-14" d="M645.65,399.59c.74,0,6.67,8.53,6.67,8.53l-1.11,5.19s-5.93,2.22-3.71,3,7.79,0,7.79,0l3-9.27-4.08-2.23-4.45-8.53Z"/><g class="cls-125"><path class="cls-126" d="M648.54,410.55s5.35,0,6.32-9.73,15.07,8.75,15.07,8.75l-10.21,13.13-14.1-2.92-3.4-5.84Z"/></g><path id="_Masque_45" data-name="&lt;Masque&gt;" class="cls-15" d="M590,412.2l1.48,7.42s-10.38,1.85-11.87,2.22-.74,1.85,4.82,1.85,13,.37,13-1.11-1.85-3.71-1.85-3.71l-.37-9.27Z"/><g class="cls-127"><path class="cls-128" d="M589.47,420s7-.68,8-2.62,5.84,4.86,5.84,4.86l-8.75,5.35-20.42-1-2.43-7.78L589.47,420"/><path class="cls-129" d="M648.54,410.55a15.08,15.08,0,0,0,6.81-8.27c1.95-5.84,10.7,4.38,10.7,4.38l-3.89,12.16-10.21,3.4-8.75-5.84Z"/></g><path id="_Masque_46" data-name="&lt;Masque&gt;" class="cls-16" d="M589.56,254l-9.72-6.63s-12.14,8-8.83,13.42c1.44,2.35,4.23,2.86,6.91,2.68,3,4.1.59,6.54-1.35,8,0,0,13.13,18,13.13-3.89,0,0-3.89-1.46-4-7.28Z"/><g class="cls-130"><path class="cls-131" d="M580,260.78s-1.76,13.11,6.41,22.84S594.07,270,594.07,270L580,260.78"/></g><path id="_Masque_47" data-name="&lt;Masque&gt;" class="cls-17" d="M589.7,314.75s10,.29,21.84-6.39c0,0,11.5,5.56,13,18.17s4.08,21.51,8.9,24.1,5.93,14.83,7.42,18.91,10.38,10.38,9.27,17.06a8.57,8.57,0,0,0,4.08,9.27L646,401.81s-8.53-7.79-9.64-11.12-16.69-24.47-19.28-29.3S605.26,342,605.26,342s-3.73,16.81-7.81,19.78-4.82,10-6.67,11.12,4.08,6.3,2.6,10.75,6.67,17.8,5.93,20.4,2.22,5.19,1.48,6.3S589.66,414,589.66,414,573,376.23,574.08,368.44,584.84,327.4,589.7,314.75Z"/><g class="cls-132"><path class="cls-133" d="M605.74,350.25l-.49-8.27a40.43,40.43,0,0,0,2.92-9.24,7,7,0,0,1,3.4-5.35S611.09,341,614,344.9s8.27,10.21,6.81,13.62,6.81,15.07,4.38,19.94S605.74,350.25,605.74,350.25Z"/><path class="cls-134" d="M588.24,313.78s4.86,7.78,11.67,3.89S614,306.49,615.47,307s-21.4,3.4-21.4,3.4Z"/><path class="cls-135" d="M602.09,353.13c-.24.52-2.67,7.33-7,8.79s-8.27,8.75-6.81,11.67-1.46,10.7,2.43,13.62,7.78,19,6.81,21.4-4.86,5.35-4.86,5.35L609.15,411l-7.05-57.9"/><path class="cls-136" d="M639.78,358.52l-1.46-1.46s-2.92,12.64,1.94,16.53,8.27,5.84,7.78,9.24S650,393,649.51,396.45a3.4,3.4,0,0,0,2.45,4.07l6.3-8-6.32-13.13-6.32-15.56Z"/></g><path id="_Masque_48" data-name="&lt;Masque&gt;" class="cls-18" d="M574.08,271.65s5.19,4.08,6.67,14.09-6.83,6-9.05-2.11c0,0-1,12.8,6.81,18s4.19,7.5,8.27,9.73,2.88,3.32,2.88,3.32,7.42,3.71,13.35,0a52.27,52.27,0,0,0,8.53-6.3s1.48-7-1.11-11.12-6.67-20-6.67-20-8.53-3-10.38-9.64h-3.71s5.19,19.65-12.24,3.34A4.74,4.74,0,0,0,574.08,271.65Z"/><g class="cls-137"><path class="cls-138" d="M580.62,271.48c-.65,1.94,14.91,36,33.39,23.82S580.62,271.48,580.62,271.48Z"/><path class="cls-139" d="M574.14,286.55c-1,1-1.46,8.75,4.86,12.16s1,9.24,6.81,9.73-.49,3.4,5.84,3.4,9.24,4.38-4.86,1.94S563,286.55,566.84,284.61a21.64,21.64,0,0,0,6.32-4.86Z"/></g><path class="cls-140" d="M577.54,249.11s-1.44-5.89,3-7,7.34,8.48,7.34,8.48,5.79-2,6.53,5.67.68,20.24,12.33,17.18,12.32,25.93-6.81,18.48S579.6,261,579.6,261s1.93,1.3,3.15-1.65-2-2.31-2-2.31-2.7-5.42-.29-8.86A5.79,5.79,0,0,0,577.54,249.11Z"/><path class="cls-141" d="M547.39,238.9s-3.4-5.35-1.95-6.32,6.32-4.38,5.84-2.43-1.46,7.78-1.46,7.78Z"/><path class="cls-142" d="M561.49,233.06a2.35,2.35,0,0,1,1.95,0c.43.22,1-.49,1.46-1s0-1.46,0-1.95,1.94-2.92,2.92-1.94-.49,3.89-1,4.86-1,1-1,1-.49,1-2.43,0C563.44,234,560.52,234,561.49,233.06Z"/></g></g></svg>