<svg xmlns="http://www.w3.org/2000/svg" xmlns:xlink="http://www.w3.org/1999/xlink" viewBox="0 0 500 361"><defs><style>.cls-1{isolation:isolate;}.cls-2{fill:none;}.cls-3{opacity:0.22;}.cls-3,.cls-4{mix-blend-mode:multiply;}.cls-4,.cls-5{fill:#4491a1;}.cls-4{opacity:0.5;}.cls-6{fill:#ffab91;}.cls-7{fill:#b74242;}.cls-8{fill:#c5cae9;}.cls-9{fill:#d1524f;}.cls-10{fill:#ff9877;}.cls-11{fill:#ff8f00;}.cls-12{fill:#713c1a;}.cls-13{fill:#212121;}.cls-14{fill:#00acc1;}.cls-15{fill:#424242;}.cls-16{fill:#37474f;}.cls-17{fill:url(#linear-gradient);}.cls-18{fill:url(#linear-gradient-2);}.cls-19{fill:url(#linear-gradient-3);}.cls-20{fill:#7d4921;}.cls-21{fill:#f9a825;}.cls-22{fill:#ffca28;}.cls-23{fill:#a46c35;}.cls-24{fill:#3e2723;}</style><linearGradient id="linear-gradient" x1="210" y1="135.49" x2="204" y2="13.49" gradientUnits="userSpaceOnUse"><stop offset="0" stop-color="#ffd4c6"/><stop offset="1" stop-color="#ffab91"/></linearGradient><linearGradient id="linear-gradient-2" x1="207.47" y1="135.62" x2="201.47" y2="13.62" xlink:href="#linear-gradient"/><linearGradient id="linear-gradient-3" x1="243.79" y1="133.83" x2="237.79" y2="11.83" xlink:href="#linear-gradient"/></defs><title>Artboard 1</title><g class="cls-1"><g id="OBJECTS"><rect class="cls-2" y="-139" width="500" height="500"/><g class="cls-3"><path class="cls-4" d="M248.52,314.14c-12.93-4.18-27.08-2.51-40.42-1.83-14,.71-27.9,1.41-41.89,1.72s-27.14-1.76-40.9-3.09a200.12,200.12,0,0,0-26.86-.34,7.78,7.78,0,0,0-8.54-4.31l-26.1,5c-1.54-2.21-4.3-3.61-6.94-2.57-7.41,2.93-14.72,6.14-22,9.36-2.07.91-1,4.21,1.12,4.15,4.49-.12,9-.25,13.49-.43a7.41,7.41,0,0,0,8.41,4.71l18.77-3.14a7.07,7.07,0,0,0,5.76,2.89c13.93,0,28,.57,41.89-1,6.73-.76,13.51-1.92,20.21-3a150.17,150.17,0,0,1,21.69-1.59c13.66-.15,27.25.08,40.9.33s28.33,1.57,41.41-3.13A2,2,0,0,0,248.52,314.14Z"/><path class="cls-5" d="M257,314.84a.16.16,0,0,0,0,.31A.16.16,0,0,0,257,314.84Z"/><path class="cls-4" d="M350,315.84c-5-.6-10.32-.3-15.42-.6-2.58-.15-5.12-.24-7.71-.22-.28,0-.74,0-1.31.1-.72-2.7-2.66-5.16-5.45-5.58a74.46,74.46,0,0,0-14.85-.43c-1.48-2.73-4.63-4.57-7.79-3.23a15.05,15.05,0,0,0-4.7,1.82c-2.42.41-5.17.42-7.06.69q-5.27.75-10.53,1.54c-7,1-13.89,2.45-20.8,4-2.7.61-2,4.59.63,4.68,7.14.26,14.22.38,21.36.11q4.57-.17,9.14-.36a7.5,7.5,0,0,0,7.56,7.2c8.81.12,18.37.95,27-.78l-.13-.13a7.71,7.71,0,0,0,4.34-2.73c1,0,1.93,0,2.56-.07,2.53-.25,5-.57,7.52-1,5.29-.88,10.78-1.15,16-2.34C352,318.15,351.43,316,350,315.84Z"/><path class="cls-4" d="M453.64,313.34A118.34,118.34,0,0,0,438.71,312c-.17-3.78-2.64-7.25-7.41-6.8-9.08.87-18.33,1.47-27.49,2.47a7,7,0,0,0-7.08-2.67c-7.77,1.3-15.51,2.77-23.29,4s-15.85,1.79-23.13,4.63c-1.5.58-1.9,3.06,0,3.47,7.58,1.61,15.65.93,23.35.89,3.14,0,6.28,0,9.43,0a7.12,7.12,0,0,0,7,6,249.77,249.77,0,0,0,25.31-1.73,5.47,5.47,0,0,0,6.44,1.47,36.6,36.6,0,0,0,5.08-1.25c3.79-.58,7.82-.61,11.44-.94a119.25,119.25,0,0,0,15.31-2.16C456.57,318.8,456.75,313.85,453.64,313.34Z"/></g><path class="cls-6" d="M104.49,252.65l-4.8,55.14,5.6.81L120.75,259Z"/><path class="cls-7" d="M129.24,231.79l1.34-72.87L95.77,144.53l-.42,2c-4.08,19.53,19.23,84.66,19.23,84.66l-9.67,16.68-.41,4.75L120.75,259Z"/><polygon class="cls-8" points="99.28 309.31 104.87 310.13 111.36 314.77 120.07 316.99 121.08 319.17 96.18 316.16 99.28 309.31"/><path class="cls-6" d="M50.09,298.86l5.26,2.06L82,255.54l-13.72-5.78Z"/><path class="cls-9" d="M83.35,139l-3.3,7.09c-6.82,14.68-10,21.9-8.73,38l10.56,44.78-9.73,10.54-3.84,10.34L82,255.54l14.09-24,10.51-68Z"/><polygon class="cls-8" points="49.34 300.25 54.61 302.31 59.87 308.31 67.85 312.45 68.34 314.8 44.77 306.22 49.34 300.25"/><polygon class="cls-10" points="127.18 72.57 166.28 60.75 214.24 66.66 214.24 72.57 168.54 72.77 130.52 84.32 127.18 72.57"/><path class="cls-10" d="M213,71.3a4.15,4.15,0,0,0-.58,4.64,10.54,10.54,0,0,0,3.29,3.68A17.72,17.72,0,0,1,219.38,83a39.79,39.79,0,0,1,2.05,3.86,5.35,5.35,0,0,0,3.19,2.81L219.24,76c-1.29-3.28-2.62-6.63-4.94-9.28l-.77.65Z"/><path class="cls-10" d="M222,84.19a9.1,9.1,0,0,0-1.41-.63c.65-.75-.77-2.86-.24-3.7,2.39,2.29,6.81,5.9,9.21,8.19a5.35,5.35,0,0,1-4.07-1.22A39.84,39.84,0,0,0,222,84.19Z"/><path class="cls-10" d="M221.26,81.15a9.11,9.11,0,0,0-1.47-.46c.56-.82-1.09-2.76-.66-3.65,2.64,2,7.43,5.1,10.07,7.1a5.35,5.35,0,0,1-4.18-.75A39.78,39.78,0,0,0,221.26,81.15Z"/><path class="cls-10" d="M218.7,81.86a6.06,6.06,0,0,0,0-1.15c.8.24,1.89-1.33,2.72-1.2-.87,2.29-2,6.36-2.89,8.65a3.7,3.7,0,0,1-.55-3.16A25.75,25.75,0,0,0,218.7,81.86Z"/><path class="cls-11" d="M101,99a34.56,34.56,0,0,1-11.7,35.38c-4.87,3.83-11.54,7.73-10.95,13.89.44,4.55,4.86,7.56,9,9.45a65.13,65.13,0,0,0,31.24,5.67c4.35-.3,9-1.22,12-4.45,3.15-3.48,3.42-8.73,2.51-13.34s-2.82-9-3.42-13.65c-1-7.67,1.62-15.3,4.24-22.57,4.71-13.08,9-37.89-10.75-41.14-6.82-1.12-14.9,2.05-20.41,5.91C93.4,80.66,98.62,90.16,101,99Z"/><polygon class="cls-6" points="93.89 69.29 46.75 98.75 79.83 148.81 85 145.32 64.54 100.69 100.55 83.14 93.89 69.29"/><path class="cls-6" d="M79,147.61a4.15,4.15,0,0,0,4,2.47,10.54,10.54,0,0,0,4.72-1.44,17.72,17.72,0,0,1,4.59-1.91,39.82,39.82,0,0,1,4.37-.24,5.35,5.35,0,0,0,3.89-1.71l-14.67-.84C82.38,143.74,79,147.61,79,147.61Z"/><path class="cls-6" d="M94.49,144.87a9.12,9.12,0,0,0-1.16,1c-.41-.9-2.92-.5-3.46-1.33,3.08-1.22,8.21-3.71,11.29-4.93a5.35,5.35,0,0,1-2.81,3.19A39.85,39.85,0,0,0,94.49,144.87Z"/><path class="cls-6" d="M91.43,144.26a9.09,9.09,0,0,0-1,1.14c-.51-.85-3-.16-3.59-.93,2.92-1.56,7.74-4.61,10.66-6.17A5.35,5.35,0,0,1,95,141.79,39.77,39.77,0,0,0,91.43,144.26Z"/><path class="cls-6" d="M91,146.89a6,6,0,0,0-1.06-.45c.55-.63-.42-2.28.05-3,1.72,1.75,4.93,4.49,6.64,6.25a3.7,3.7,0,0,1-3.1-.83A25.76,25.76,0,0,0,91,146.89Z"/><path class="cls-12" d="M145.73,47.14c1.7-4.45.84-10.26-3.19-12.79C144,30,141.6,25,137.68,22.72s-9-2.14-13.15-.38A28,28,0,0,0,114,30.83c-2.87,3.53-5.24,7.43-7.91,11.1-1.59,2.18-3.42,4.38-6,5.25-2.75.93-5.74.12-8.62-.3s-6.24-.26-8.1,2C81,51.73,82.52,56.22,81,59.65,79.84,62.4,76.94,64,74.11,65s-5.86,1.6-8.33,3.29c-5.23,3.58-6.43,11-5,17.18,2,8.66,8.43,16.31,16.84,19.14s18.5.47,24.35-6.21c6.63-7.57,7.19-18.84,12.92-27.12C119.54,64.53,126,62.61,133.31,60,138.79,58.1,143.7,52.47,145.73,47.14Z"/><path class="cls-6" d="M134.69,36.13c1.8.23,3,2,3.46,3.79s.27,3.63.57,5.42,1.25,3.68,3,4.25c.84.28,1.95.35,2.25,1.18.4,1.1-1.07,1.86-1.83,2.76-1.17,1.37-.66,3.45-.11,5.18l0,.05a4,4,0,0,1-3.9,5.21c-1.28,0-2.9-.07-4.89-.21a2.39,2.39,0,0,0-2.39,1.45c-1.68,4-5.95,14.19-6.27,15.88-3.1.79-5.11-1.8-6.9-5.78a6.08,6.08,0,0,1-.22-4.47l4.85-14.06a3.43,3.43,0,0,1-3.67-.58,3.19,3.19,0,0,1-.9-3.57c.51-1.21,3.61-3.62,5.12.44a15.19,15.19,0,0,0,1.34-6.82C123.72,38.24,134.69,36.13,134.69,36.13Z"/><polygon class="cls-6" points="205.72 107.12 206.73 132.39 226.17 170.55 220.11 172.75 194.53 136.81 192.04 106.29 205.72 107.12"/><path class="cls-6" d="M225.41,170.11a12.37,12.37,0,0,1,4.18.36,4.19,4.19,0,0,1,2.9,2.81c.14.58.1,1.2.29,1.76a8.48,8.48,0,0,0,1.94,2.47c.68.81,1.05,2.14.26,2.85-.58.52-1.47.4-2.25.47-1.94.17-3.58,1.67-5.52,1.81a5.53,5.53,0,0,1-4.42-2.13,16.35,16.35,0,0,1-2.42-4.46,7.3,7.3,0,0,1-.74-2.75A2.49,2.49,0,0,1,221,171Z"/><path class="cls-13" d="M204.15,160.16l-31-13.67-.08,2.06A115.67,115.67,0,0,0,185.89,206l11,21.33-2.38,22.51,9.76,56.94,5.65-.13,10.81-79.73Z"/><polygon class="cls-14" points="204.12 308.37 209.77 308.24 216.94 311.74 225.9 312.48 227.26 314.45 202.21 315.64 204.12 308.37"/><path class="cls-15" d="M183.73,163.31l-23.29-24.58-3.3,7.09a93.81,93.81,0,0,0-8.44,47l2.37,29.66-10.89,19.84-13,56.29,5.26,2.06,40.77-69.36Z"/><polygon class="cls-14" points="126.43 300 131.7 302.07 136.96 308.06 144.94 312.21 145.43 314.55 121.86 305.97 126.43 300"/><path class="cls-14" d="M192.59,59.83c-6,.29-11.46,3.6-15.25,7.83S171.19,77,169,82.07c-7.61,17.48-20.82,74.22-17.25,79.87a166,166,0,0,1,18,3l25.72,6.4c3.9,1,12.32,3.42,12.32,3.42,5.82-3-3.11-60.58-.81-80.89,1.07-9.4,2.6-19.86-3.62-27.46Z"/><path class="cls-16" d="M218.09,36.36a22.15,22.15,0,0,0,6.14-9.55c.95-2.95,1.18-6.42-.64-8.92s-5.15-3.34-8.16-3-5.78,1.82-8.46,3.23l-6.09,3.19a9.64,9.64,0,0,0-3.33,2.41,3.29,3.29,0,0,0-.32,3.85,7.79,7.79,0,0,0-4.34,10.79c1.15,2,3.3,3.63,3.6,6,.4,3-2.47,5.87-1.6,8.75Z"/><path class="cls-17" d="M216.87,27.34c1.79.69,2.6,2.82,2.58,4.74s-.64,3.77-.78,5.68.35,4.07,2,5.1c.79.5,1.9.85,2,1.78.13,1.23-1.56,1.63-2.56,2.35-1.55,1.11-1.54,3.36-1.42,5.26s0,4.18-1.59,5.17c-2.08,1.28-4.61-.65-7-1A7.23,7.23,0,0,0,204,59c-1.54,1.65-5.06,10.52-6,12.57-4,0-8-5.22-8.8-11.07L199,45.3a3.61,3.61,0,0,1-3.6-1.51,3.35,3.35,0,0,1,0-3.88c.83-1.11,4.6-2.79,5.12,1.74A16,16,0,0,0,203.6,35C205.12,26.73,216.87,27.34,216.87,27.34Z"/><polygon class="cls-18" points="188.06 91.02 193.77 112.98 238.26 104.31 240.17 111.45 184.14 134.77 171.69 96.94 188.06 91.02"/><path class="cls-19" d="M235.26,104.28a14.3,14.3,0,0,1,2.46-4.17,4.84,4.84,0,0,1,4.37-1.62c.67.15,1.3.49,2,.58,1.21.16,2.36-.49,3.54-.79s2.76,0,3.1,1.14c.25.87-.31,1.73-.63,2.58-.79,2.11,0,4.56-.86,6.65a6.39,6.39,0,0,1-4.43,3.55,18.89,18.89,0,0,1-5.85.3,8.44,8.44,0,0,1-3.24-.6,2.87,2.87,0,0,1-1.76-2.58Z"/><path class="cls-11" d="M291.74,34.43A8.84,8.84,0,0,1,285.65,23,8.84,8.84,0,0,1,298,19a8.45,8.45,0,0,1,15.45,2.15,6.44,6.44,0,0,0,.91,2.54c.76.93,2.07,1.13,3.15,1.62,3.53,1.61,4.47,6.45,3.15,10.1s-4.24,6.43-6.85,9.3-5.1,6.25-5.2,10.13a8.47,8.47,0,0,0-4.16-2.66Z"/><path class="cls-5" d="M321.83,160.16l-31-13.67-.08,2.06A115.67,115.67,0,0,0,303.57,206l4.07,7.89,25.83-6.86Z"/><path class="cls-10" d="M307.64,213.92l6.93,13.44-2.38,22.51,9.76,56.94,5.65-.13,7.41-80-4.73-18.74Z"/><polygon class="cls-9" points="321.8 308.37 327.45 308.24 334.62 311.74 343.58 312.48 344.94 314.45 319.89 315.64 321.8 308.37"/><polygon class="cls-6" points="287.71 214.22 290.47 225.74 278.84 242.03 269.89 282.3 274.67 285.52 310.83 228.49 309.44 208.61 287.71 214.22"/><path class="cls-14" d="M305,159.74l-29.29-17-1.15,7.73A93.81,93.81,0,0,0,279.8,198l6.39,16.65,25.34-6.53Z"/><polygon class="cls-9" points="269.5 283.2 273.94 286.7 277.25 293.96 283.69 300.23 283.48 302.62 263.4 287.6 269.5 283.2"/><path class="cls-9" d="M317.62,69.47c-5.4-7.56-26.69-1.8-26.73-1.75-3.79,4.23-2,9.28-4.22,14.35-7.61,17.48-13.93,52.05-13.12,96.62l51.91-3.93C331.27,171.73,331.37,88.74,317.62,69.47Z"/><path class="cls-6" d="M293.5,27.33c-1.87.4-3,2.38-3.29,4.28s0,3.83-.12,5.74-1,4-2.74,4.72c-.85.37-2,.54-2.26,1.44-.32,1.19,1.29,1.86,2.16,2.73,1.35,1.34,1,3.56.57,5.42s-.68,4.12.76,5.36c1.85,1.59,4.65.08,7.09.14,2.26.05,1,13.62,1.66,15.79,3.93.65,9.15-.55,10.83-6.21l.15-18.85a3.61,3.61,0,0,0,3.8-.93,3.35,3.35,0,0,0,.63-3.83c-.64-1.23-4.11-3.47-5.33.92a16,16,0,0,1-2-7C305.19,28.56,293.5,27.33,293.5,27.33Z"/><polygon class="cls-10" points="279.86 96.27 267.01 118.05 262.69 160.66 256.4 159.23 254.37 115.15 268.81 88.16 279.86 96.27"/><path class="cls-10" d="M262.29,159.88a12.37,12.37,0,0,1,3.31,2.57,4.19,4.19,0,0,1,.91,3.93c-.2.56-.56,1.06-.71,1.64a8.48,8.48,0,0,0,.29,3.13c.13,1-.28,2.37-1.32,2.54-.77.12-1.45-.46-2.14-.82-1.72-.91-3.91-.54-5.62-1.47a5.53,5.53,0,0,1-2.56-4.19,16.35,16.35,0,0,1,.38-5.06,7.3,7.3,0,0,1,.87-2.72,2.49,2.49,0,0,1,2.41-1.23Z"/><polygon class="cls-6" points="319.14 98.17 317.81 109.4 265.41 102.98 264.66 110.34 330.55 126.09 332.23 96.47 319.14 98.17"/><path class="cls-6" d="M268.37,102.47a14.3,14.3,0,0,0-3.09-3.73,4.84,4.84,0,0,0-4.57-.91c-.64.25-1.2.69-1.86.88-1.17.35-2.41-.11-3.63-.22s-2.73.41-2.88,1.62c-.11.9.58,1.66,1,2.44,1.11,2,.77,4.49,1.91,6.43a6.39,6.39,0,0,0,4.93,2.8,18.89,18.89,0,0,0,5.83-.63,8.44,8.44,0,0,0,3.1-1.11,2.87,2.87,0,0,0,1.33-2.83Z"/><path class="cls-9" d="M295.13,67.54s-16.19-2.17-28,19.64l14,11Z"/><path class="cls-9" d="M315.92,67.48s15.83,4,18.65,28.69l-17.1,5Z"/><polygon class="cls-20" points="349.25 92.18 346.27 75.27 338.92 76.05 338.36 96.36 349.25 92.18"/><path class="cls-20" d="M347.38,78.06a14.3,14.3,0,0,0,3-3.79,4.84,4.84,0,0,0-.05-4.66c-.38-.58-.92-1-1.25-1.64-.58-1.07-.39-2.38-.53-3.59s-1-2.59-2.18-2.49c-.9.08-1.5.91-2.18,1.51-1.68,1.49-4.24,1.68-5.9,3.19a6.39,6.39,0,0,0-1.73,5.4,18.89,18.89,0,0,0,1.82,5.57,8.44,8.44,0,0,0,1.72,2.81,2.87,2.87,0,0,0,3,.72Z"/><path class="cls-21" d="M374.26,67.73a213.68,213.68,0,0,0-17.35,41.12c-2.83-7.35-3.83-14.3-6.66-21.64a19.18,19.18,0,0,0-1-2.21c-2.77,1.25-7.32,2.23-10.11,3.49a7.12,7.12,0,0,1-1,.37c0,.52,0,1,0,1.56a136.26,136.26,0,0,0,7.16,44.14c1.31,3.89,3,8,6.54,10.13,5,3,11.44.9,16.4-2.12a52.08,52.08,0,0,0,23-30.67Z"/><path class="cls-5" d="M375.67,158.82l31-13.67.08,2.06a115.83,115.83,0,0,1-3.75,34c-3,11.29-9.25,21.37-12.34,32.61-1.81,6.6-3,13.38-4.28,20.1-3,16.25-5.44,32.6-7.75,49-1.06,7.53-2.1,15.06-3.06,22.61l-5.65-.13-6.44-47.49A170,170,0,0,1,366.92,194Z"/><polygon class="cls-22" points="375.7 307.04 370.05 306.9 362.88 310.4 353.92 311.14 352.56 313.12 377.61 314.3 375.7 307.04"/><path class="cls-14" d="M396.09,162l23.29-24.58,3.3,7.09a93.81,93.81,0,0,1,8.44,47l-.57,7.1c-1.17,14.72,22.09,98.68,22.09,98.68l-5.26,2.06L423.09,258a170,170,0,0,1-21.46-60.2Z"/><polygon class="cls-22" points="453.39 298.66 448.12 300.73 442.86 306.72 434.88 310.87 434.39 313.21 457.96 304.63 453.39 298.66"/><path class="cls-22" d="M387.23,58.49c6,.29,11.46,3.6,15.25,7.83s6.15,9.34,8.35,14.4c7.61,17.48,20.82,74.22,17.25,79.88l-56,12.81c-5.82-3,3.11-60.58.81-80.89-1.07-9.4-2.6-19.86,3.62-27.46Z"/><polygon class="cls-23" points="450.16 124.94 454.37 141.59 461.64 140.27 460.72 119.97 450.16 124.94"/><path class="cls-23" d="M453.06,138.88a14.3,14.3,0,0,0-2.73,4,4.84,4.84,0,0,0,.39,4.64c.42.55,1,1,1.37,1.55.66,1,.56,2.35.79,3.54s1.15,2.51,2.35,2.32c.89-.14,1.43-1,2.06-1.66,1.57-1.61,4.11-2,5.65-3.61a6.39,6.39,0,0,0,1.33-5.51,18.89,18.89,0,0,0-2.22-5.43,8.44,8.44,0,0,0-1.92-2.67,2.87,2.87,0,0,0-3.09-.49Z"/><path class="cls-22" d="M441.31,108.87c3.36,7.12,4.86,14,8.22,21.1a19.2,19.2,0,0,0,1.15,2.13c2.67-1.45,7.14-2.76,9.83-4.22a7.11,7.11,0,0,1,1-.44c0-.52,0-1-.08-1.56a136.26,136.26,0,0,0-10.35-43.5c-1.59-3.78-48.06-19.58-52-20.69-14.59-4.07-20,23-8.56,30C401.64,98.61,431.29,96.47,441.31,108.87Z"/><path class="cls-24" d="M365.4,40.58a4.88,4.88,0,0,1-5.93-7c-3.29.2-5.65-4.39-3.57-7a4.4,4.4,0,0,1-2.58-4.91,4.4,4.4,0,0,1,4.45-3.3,6.74,6.74,0,0,1,11-5.75,8.05,8.05,0,0,1,14.81-1.43c5.59-1.78,12.26,2.6,12.85,8.43A7,7,0,0,1,401,29.14a5.62,5.62,0,0,1,.64,10.68c1.63,3.58-1.79,8.31-5.7,7.88A3.17,3.17,0,0,1,391.35,52a5.38,5.38,0,0,1-9.63,2.41Z"/><path class="cls-23" d="M367.91,28.9c-1.69.37-2.71,2.15-3,3.86s0,3.45-.1,5.17-.88,3.57-2.47,4.26c-.77.33-1.81.49-2,1.3-.29,1.07,1.16,1.67,2,2.45,1.22,1.2.9,3.21.52,4.88s-.61,3.72.69,4.83c1.67,1.43,4.19.07,6.39.11a6.52,6.52,0,0,1,5,3.08c1.14,1.69,3,10.07,3.59,12,3.54.58,7.88-3.52,9.38-8.62l-6.6-14.86a3.25,3.25,0,0,0,3.42-.84,3,3,0,0,0,.56-3.45c-.58-1.1-3.71-3.13-4.8.83a14.41,14.41,0,0,1-1.82-6.33C378.45,30,367.91,28.9,367.91,28.9Z"/></g></g></svg>