<svg xmlns="http://www.w3.org/2000/svg" width="89.75" height="106.153" viewBox="0 0 89.75 106.153">
  <g id="Groupe_4" data-name="Groupe 4" transform="matrix(0.966, -0.259, 0.259, 0.966, -24.69, 17.806)">
    <g id="Groupe_3" data-name="Groupe 3" transform="translate(14.813 -0.001)">
      <g id="Groupe_2" data-name="Groupe 2">
        <g id="Groupe_1" data-name="Groupe 1">
          <path id="Tracé_1" data-name="Tracé 1" d="M429.368,59.407a5.849,5.849,0,0,1,1.118,4.836,6.362,6.362,0,0,1-2.676,4.27l-6.367,4.623L417.737,67.9l2.613,3.654,6.356-4.622A5.262,5.262,0,0,0,428.59,63.9a4.642,4.642,0,0,0-.78-3.378,4.436,4.436,0,0,0-2.888-1.8,4.865,4.865,0,0,0-3.454.905l-6.332,4.6-1.117-1.582,6.33-4.6a6.38,6.38,0,0,1,4.786-1.23A6.082,6.082,0,0,1,429.368,59.407Z" transform="translate(-334.371 -45.43)" fill="#d12636"/>
          <path id="Tracé_2" data-name="Tracé 2" d="M312.254,143.462l-26.365,19.231c-.088-.213-.177-.44-.251-.666l-.44-1.244-7.473,5.427,33.3-24.318a.621.621,0,0,0,.339-.564.748.748,0,0,0-.113-.678l-.463-.654.024-.012,1.532-1.117.465.665a2.8,2.8,0,0,1,.564,2.136A3.114,3.114,0,0,1,312.254,143.462Z" transform="translate(-225.27 -111.16)" fill="#d12636"/>
          <path id="Tracé_3" data-name="Tracé 3" d="M422.123,97.894,419.5,94.239l.025-.014Z" transform="translate(-338.757 -75.426)" fill="#d12636"/>
          <path id="Tracé_4" data-name="Tracé 4" d="M424.638,222.651a1.2,1.2,0,0,0-1.345-1.345,1.221,1.221,0,0,0-.879.34,1.38,1.38,0,0,0-.453,1,1.4,1.4,0,0,0,.453.9,1.334,1.334,0,0,0,.879.453,1.376,1.376,0,0,0,1-.453A1.279,1.279,0,0,0,424.638,222.651Zm1-2.361a3.668,3.668,0,0,1,.892,2.361,3.168,3.168,0,0,1-.892,2.248,3.731,3.731,0,0,1-2.349,1.017,3.182,3.182,0,0,1-2.223-1.017,3.5,3.5,0,0,1-1.006-2.248,3.541,3.541,0,0,1,1.006-2.361,3.263,3.263,0,0,1,2.223-.9A3.392,3.392,0,0,1,425.642,220.29Z" transform="translate(-339.211 -175.615)" fill="#d12636"/>
          <path id="Tracé_5" data-name="Tracé 5" d="M408.814,87.89l2.625,3.655,3.706,5.238L413.612,97.9l-7.461-10.463.779-.565.791-.578,1.117,1.582Z" transform="translate(-328.073 -69.077)" fill="#d12636"/>
          <path id="Tracé_6" data-name="Tracé 6" d="M354.01,437.585a.975.975,0,0,1,.881,1.006.88.88,0,0,1-.881.9h-4.9a.912.912,0,0,1-1-.9.992.992,0,0,1,1-1.006Z" transform="translate(-281.611 -350.28)" fill="#d12636"/>
          <path id="Tracé_7" data-name="Tracé 7" d="M364.964,34.213a.906.906,0,0,1,.326,1.231c-.1.113-.213.226-.326.339l-3.454,2.023a.887.887,0,0,1-1.218-.328.972.972,0,0,1,.326-1.355L362.629,35l-2.01-1.244a.819.819,0,0,1-.326-1.23.8.8,0,0,1,1.218-.34Z" transform="translate(-291.232 -25.637)" fill="#d12636"/>
          <path id="Tracé_8" data-name="Tracé 8" d="M315.345,450.557a.955.955,0,1,1,0,1.909H304.868a.887.887,0,0,1-.89-.9.909.909,0,0,1,.89-1Z" transform="translate(-246.285 -360.664)" fill="#d12636"/>
          <path id="Tracé_9" data-name="Tracé 9" d="M214.686,264.029l-23.84,17.384,23.8-17.46C214.662,263.979,214.674,264,214.686,264.029Z" transform="translate(-155.725 -211.29)" fill="#d12636"/>
          <path id="Tracé_10" data-name="Tracé 10" d="M251.994,79.6a.6.6,0,0,0-.552-.339.717.717,0,0,0-.665.113l-36.628,26.7-.013-.012q9.571-6.971,19.155-13.98l-.113-.565c-.05-.54-.113-1.081-.188-1.595L249.659,77.8a2.741,2.741,0,0,1,2.109-.565,3.008,3.008,0,0,1,1.784,1.131l.465.653-.791.578-.779.565,7.461,10.463-.024.012Z" transform="translate(-174.369 -61.806)" fill="#d12636"/>
          <path id="Tracé_11" data-name="Tracé 11" d="M153.82,143.1q-9.608,6.99-19.155,13.98-9.57,6.99-19.155,13.917l-.439-1.244c-.075-.226-.151-.465-.214-.691l1.658-1.218,37-26.9c.075.514.137,1.055.188,1.595Z" transform="translate(-94.897 -112.823)" fill="#d12636"/>
          <path id="Tracé_12" data-name="Tracé 12" d="M212.543,277.749c2.11,4.722-.552,9.232-14.922,15.751-2.224,1-8.465.113-15.374-3.039a51.52,51.52,0,0,1-14.759-10.187l4.66-3.392-3.04,2.224a50.644,50.644,0,0,0,13.93,9.558c6.456,2.926,11.907,3.818,13.8,3.027,12.913-5.841,15.475-9.559,13.917-13.15-.892-1.91-3-4.045-5.35-6.407-3.329-3.366-7.2-7.285-9.421-12.635l1.658-1.206c1.985,5.163,5.9,9.03,9.219,12.372C209.315,273.252,211.539,275.5,212.543,277.749Z" transform="translate(-137.028 -206.759)" fill="#d12636"/>
          <path id="Tracé_13" data-name="Tracé 13" d="M160.877,271.164l23.313-17.019,7.473-5.427.44,1.244c.075.226.163.453.251.666l-1.658,1.206c-.012-.026-.024-.05-.038-.076l-23.8,17.46-4.66,3.392c-.2-.2-.4-.4-.6-.616Z" transform="translate(-131.735 -199.095)" fill="#d12636"/>
          <path id="Tracé_14" data-name="Tracé 14" d="M183.939,275.917l-23.313,17.019-.063-.063Z" transform="translate(-131.484 -220.867)" fill="#d12636"/>
          <path id="Tracé_15" data-name="Tracé 15" d="M144.388,12.539a.91.91,0,0,1-.678,1.243l-1.671.441a.985.985,0,0,1-1.105-.666,1.028,1.028,0,0,1,.666-1.244l1.67-.451A.994.994,0,0,1,144.388,12.539Z" transform="translate(-115.748 -9.476)" fill="#d12636"/>
          <path id="Tracé_16" data-name="Tracé 16" d="M143.6,489.089a.863.863,0,0,0-.226-.439c-.1-.113-.213-.113-.44-.113s-.339,0-.452.113a.94.94,0,0,0-.213.439.619.619,0,0,0,.213.453.588.588,0,0,0,.452.226.542.542,0,0,0,.44-.226A.586.586,0,0,0,143.6,489.089Zm1.783,0a2.429,2.429,0,0,1-.666,1.809,2.406,2.406,0,0,1-3.567,0,2.427,2.427,0,0,1-.665-1.809,2.333,2.333,0,0,1,.665-1.683,2.432,2.432,0,0,1,3.567,0A2.336,2.336,0,0,1,145.38,489.089Z" transform="translate(-115.409 -389.537)" fill="#d12636"/>
          <path id="Tracé_17" data-name="Tracé 17" d="M137.552,26.62a.9.9,0,0,1-.665,1.131.883.883,0,0,1-1.105-.678l-.453-1.57A.978.978,0,0,1,136,24.258a.989.989,0,0,1,1.118.678Z" transform="translate(-111.262 -19.401)" fill="#d12636"/>
          <path id="Tracé_18" data-name="Tracé 18" d="M131.017,2.383a1.006,1.006,0,0,1-.666,1.13,1.053,1.053,0,0,1-1.231-.678l-.439-1.57a1.129,1.129,0,0,1,.665-1.243A1.038,1.038,0,0,1,130.565.7Z" transform="translate(-105.945 0.001)" fill="#d12636"/>
          <path id="Tracé_19" data-name="Tracé 19" d="M178.265,137.212l-53.672,38.573a.913.913,0,0,1-1.331-.226,1.179,1.179,0,0,1,.226-1.345l53.671-38.473a.92.92,0,1,1,1.106,1.47Z" transform="translate(-101.53 -108.501)" fill="#d12636"/>
          <path id="Tracé_20" data-name="Tracé 20" d="M120.526,19.312a.9.9,0,0,1-.665,1.117l-1.671.453a1,1,0,0,1-1.218-.678.98.98,0,0,1,.666-1.119l1.783-.452A.887.887,0,0,1,120.526,19.312Z" transform="translate(-96.571 -14.893)" fill="#d12636"/>
          <path id="Tracé_21" data-name="Tracé 21" d="M119.141,37.418a21.7,21.7,0,0,0-9.245,6.419C103.1,51.6,99.433,65.2,104.884,82.863l-1.658,1.218c-5.928-18.678-2.034-33.261,5.113-41.6a23.1,23.1,0,0,1,10.237-6.858,15.881,15.881,0,0,1,11.141.339c5.852,2.475,10.676,8.943,12.172,20l-37,26.9,35.181-25.649c-1.217-10.9-5.677-17.1-11.128-19.457A14.7,14.7,0,0,0,119.141,37.418Z" transform="translate(-83.266 -27.838)" fill="#d12636"/>
          <path id="Tracé_22" data-name="Tracé 22" d="M75.82,348.831l-.013.012L68.334,338.38l.025-.012Z" transform="translate(-57.656 -270.858)" fill="#d12636"/>
          <path id="Tracé_23" data-name="Tracé 23" d="M111.854,362.665l-9.509,6.933a2.87,2.87,0,0,1-2.123.44,2.6,2.6,0,0,1-1.783-1.118l-.452-.628,1.557-1.156.465.654c.113.113.327.338.553.338a1.365,1.365,0,0,0,.666-.113l9.307-6.8.716.829C111.452,362.263,111.652,362.464,111.854,362.665Z" transform="translate(-81.393 -289.151)" fill="#d12636"/>
          <path id="Tracé_24" data-name="Tracé 24" d="M69.132,356.656l-3-4.158.025-.024Z" transform="translate(-55.892 -282.149)" fill="#d12636"/>
          <path id="Tracé_25" data-name="Tracé 25" d="M61.781,338.43l7.473,10.463L67.7,350.049h-.013l-3.341-4.634-2.977-4.183-.025.024-1.194-1.645Z" transform="translate(-51.103 -270.908)" fill="#d12636"/>
          <path id="Tracé_26" data-name="Tracé 26" d="M67.946,235.756q9.609-6.933,19.155-13.917l.013.012-29.4,21.441a2.146,2.146,0,0,0-.339.552.829.829,0,0,0,.226.678l.415.578-1.633,1.181-.452-.628a3.067,3.067,0,0,1-.452-2.148,2.664,2.664,0,0,1,1.117-1.91l10.7-7.774c.063.226.138.465.214.691Z" transform="translate(-47.333 -177.579)" fill="#d12636"/>
          <path id="Tracé_27" data-name="Tracé 27" d="M44.155,159.64l.452,1.808L42.823,162l-.552-1.8Z" transform="translate(-36.793 -127.789)" fill="#d12636"/>
          <path id="Tracé_28" data-name="Tracé 28" d="M38.437,173.17l-1.884.565-.452-1.808,1.783-.453Z" transform="translate(-31.854 -137.263)" fill="#d12636"/>
          <path id="Tracé_29" data-name="Tracé 29" d="M32.848,154.033l.452,1.684-1.784.564-.452-1.683Z" transform="translate(-27.823 -123.301)" fill="#d12636"/>
          <path id="Tracé_30" data-name="Tracé 30" d="M26.175,165.3l.553,1.684-1.784.564-.552-1.683Z" transform="translate(-22.481 -132.322)" fill="#d12636"/>
          <path id="Tracé_31" data-name="Tracé 31" d="M28.054,350.155l3.341,4.634-6.318,4.673a6.386,6.386,0,0,1-4.9,1.117,6.888,6.888,0,0,1-4.233-2.462,6.508,6.508,0,0,1-1-4.949,6.725,6.725,0,0,1,2.562-4.282l6.356-4.535L25.052,346l-6.33,4.585a4.264,4.264,0,0,0-1.884,2.914,4.072,4.072,0,0,0,.779,3.378,4.436,4.436,0,0,0,2.889,1.8,4.569,4.569,0,0,0,3.341-.892l6.356-4.611Z" transform="translate(-14.813 -275.648)" fill="#d12636"/>
        </g>
      </g>
    </g>
  </g>
</svg>
