<?xml version="1.0" encoding="utf-8"?>
<!-- Generator: Adobe Illustrator 21.0.0, SVG Export Plug-In . SVG Version: 6.00 Build 0)  -->
<svg version="1.1" id="Calque_1" xmlns="http://www.w3.org/2000/svg" xmlns:xlink="http://www.w3.org/1999/xlink" x="0px" y="0px"
	 viewBox="0 0 800 434.3" style="enable-background:new 0 0 800 434.3;" xml:space="preserve">
<style type="text/css">
	.st0{fill:#FBFBFB;}
	.st1{fill:#3C3C3C;}
	.st2{fill:#424242;}
	.st3{fill:#FAFAFA;}
	.st4{fill:#EDE8E4;}
	.st5{fill:#039BE5;}
	.st6{fill:#70B773;}
	.st7{fill:#0288D1;}
	.st8{fill:#DBD1C8;}
	.st9{fill:#616161;}
	.st10{opacity:0.2;fill:#424242;enable-background:new    ;}
	.st11{fill:#EF5350;}
	.st12{fill:#E53935;}
</style>
<title>Artboard 1</title>
<g>
	<g id="OBJECTS">
		<path class="st0" d="M264.1,115.7c5.1,0,9.3,4.2,9.3,9.3c0,0,0,0,0,0h-18.6C254.9,119.9,259,115.7,264.1,115.7
			C264.1,115.7,264.1,115.7,264.1,115.7z"/>
		<path class="st0" d="M290.4,108c9.4,0,17,7.6,17,17l0,0h-34C273.4,115.6,281,108,290.4,108L290.4,108z"/>
		<path class="st0" d="M483.8,201.3c5.1,0,9.3,4.2,9.3,9.3c0,0,0,0,0,0h-18.6C474.5,205.4,478.7,201.3,483.8,201.3
			C483.8,201.3,483.8,201.3,483.8,201.3z"/>
		<path class="st0" d="M510.1,193.6c9.4,0,17,7.6,17,17h-34C493.1,201.2,500.7,193.6,510.1,193.6L510.1,193.6z"/>
		<path class="st0" d="M574.5,174.4c5.1,0,9.3,4.2,9.3,9.3h-18.6C565.3,178.6,569.4,174.4,574.5,174.4z"/>
		<path class="st0" d="M600.8,166.7c9.4,0,17,7.6,17,17h-34C583.8,174.3,591.5,166.7,600.8,166.7z"/>
		<path class="st1" d="M766.6,395.1V374h-14.4l-67.3-89.2c-3.8-5.1-18.3-9.1-32.4-9.1H147.6c-14.1,0-28.6,4-32.4,9l-67.3,89.2H33.4
			V396l0,0c0.5,5.9,9.9,10.2,24.7,10.2h683.8C757.5,406.3,767.1,401.5,766.6,395.1z"/>
		<path class="st2" d="M115.2,262.6L35.3,368.4c-6.5,8.5,3.7,15.7,22.8,15.7h683.7c19.1,0,29.2-7.2,22.8-15.7l-79.8-105.8
			c-3.8-5-18.3-9-32.4-9H147.6C133.4,253.5,119,257.5,115.2,262.6z"/>
		<polygon class="st3" points="691.8,377.5 108.2,377.5 179.5,257.2 620.5,257.2 		"/>
		<path class="st4" d="M255.2,290.8l-8.6,24.2h94.1l4.1-29.8h-73C269.5,288.1,262.9,290.3,255.2,290.8z"/>
		<path class="st4" d="M348.7,257.2h-81.4l-7.2,20.2c7.1,0.5,12.1,2.6,12.6,5.3h72.5L348.7,257.2z"/>
		<path class="st5" d="M265.8,284c0.8-2.4-3.7-4.2-9.9-4.2s-12.1,1.9-13.1,4.2s3.5,4.4,9.9,4.4C259.1,288.4,265,286.4,265.8,284z"/>
		<path class="st6" d="M294.4,273.4c0.4-1.6-2.8-2.9-7.1-2.9s-8.3,1.3-8.8,2.9s2.7,2.9,7.1,2.9S294,275,294.4,273.4z"/>
		<polygon class="st4" points="238.2,318 143.5,318 134.8,332.6 232.8,332.6 		"/>
		<polygon class="st4" points="351.9,282.8 453.2,282.8 449.8,257.2 355,257.2 		"/>
		<polygon class="st6" points="457.9,318 245.5,318 230,361.4 463.7,361.4 		"/>
		<polygon class="st5" points="584.7,257.2 519.2,257.2 537.8,315 613.4,315 		"/>
		<path class="st4" d="M162.9,285.3L145.2,315h94.1l9-24.2c-7.3-0.5-12.3-2.8-12.5-5.5H162.9z"/>
		<path class="st4" d="M261,257.2h-81.4l-15.2,25.6h72.5c2.5-2.7,9.1-4.8,16.5-5.3L261,257.2z"/>
		<polygon class="st4" points="453.5,285.3 351.5,285.3 347.9,315 457.5,315 		"/>
		<polygon class="st4" points="228.8,365 224.3,377.5 465.9,377.5 464.2,365 		"/>
		<polygon class="st4" points="465.2,318 474.2,377.5 549.5,377.5 531.4,318 		"/>
		<polygon class="st4" points="132.9,335.8 108.2,377.5 216,377.5 231.6,335.8 		"/>
		<polygon class="st5" points="538.7,318 557.8,377.5 644.4,377.5 614.8,318 		"/>
		<polygon class="st4" points="652.7,377.5 691.8,377.5 678.7,355.4 641.3,355.4 		"/>
		<polygon class="st4" points="639.5,351.9 676.6,351.9 656.5,318 622.2,318 		"/>
		<polygon class="st4" points="620.6,315 654.8,315 620.5,257.2 590.9,257.2 		"/>
		<polygon class="st4" points="520.7,282.8 512.9,257.2 456,257.2 459.9,282.8 		"/>
		<polygon class="st4" points="521.5,285.3 460.3,285.3 464.8,315 530.5,315 		"/>
		<polygon class="st7" points="618.9,326.1 541.3,326.1 538.7,318 614.8,318 		"/>
		<path class="st6" d="M165.1,298.3c-1.9,0-3.7,0.6-4.2,1.3s0.8,1.3,2.6,1.3s3.8-0.6,4.2-1.3S166.9,298.3,165.1,298.3z"/>
		<path class="st6" d="M179.2,298.3c-1.9,0-3.7,0.6-4.1,1.3s0.8,1.3,2.7,1.3s3.7-0.6,4.1-1.3S181.1,298.3,179.2,298.3z"/>
		<path class="st6" d="M193.3,298.3c-1.9,0-3.7,0.6-4.1,1.3s0.9,1.3,2.7,1.3s3.7-0.6,4.1-1.3S195.2,298.3,193.3,298.3z"/>
		<path class="st6" d="M207.4,298.3c-1.9,0-3.7,0.6-4,1.3s0.9,1.3,2.8,1.3s3.7-0.6,4-1.3S209.3,298.3,207.4,298.3z"/>
		<path class="st6" d="M221.5,298.3c-1.9,0-3.7,0.6-4,1.3s0.9,1.3,2.8,1.3s3.7-0.6,4-1.3S223.4,298.3,221.5,298.3z"/>
		<path class="st6" d="M235.7,298.3c-1.9,0-3.6,0.6-3.9,1.3s1,1.3,2.9,1.3s3.6-0.6,3.9-1.3S237.5,298.3,235.7,298.3z"/>
		<polygon class="st6" points="620.6,315 654.8,315 639,288.4 607,288.4 		"/>
		<polygon class="st8" points="143.6,329.6 148.7,320.8 230.3,320.8 226.8,329.6 		"/>
		<polygon class="st8" points="404.6,280.4 404.3,259.2 444.1,259.2 446.6,280.4 		"/>
		<polygon class="st8" points="355,312.3 357.6,287.7 386.9,287.7 386.1,312.3 		"/>
		<polygon class="st8" points="303.5,312.3 309,287.7 338.1,287.7 334.3,312.3 		"/>
		<polygon class="st8" points="481.4,374 475.9,341 531.2,341 540.7,374 		"/>
		<polygon class="st8" points="474.5,332.6 472.9,323 526,323 528.8,332.6 		"/>
		<polygon class="st8" points="118,374 138.3,338.8 223.3,338.8 209.6,374 		"/>
		<polygon class="st8" points="658.6,374 650.5,358.7 673.1,358.7 682,374 		"/>
		<polygon class="st8" points="645.2,348.7 630.5,320.8 651.3,320.8 667.4,348.7 		"/>
		<polygon class="st8" points="609.7,281.4 597.9,259.2 615.8,259.2 628.6,281.4 		"/>
		<polygon class="st8" points="465.8,280.4 464,269.5 510.6,269.5 513.8,280.4 		"/>
		<polygon class="st8" points="471.1,312.3 468,293.5 517.5,293.5 522.9,312.3 		"/>
		<polygon class="st8" points="153.6,312.3 233.6,312.3 236.9,303.8 158.5,303.8 		"/>
		<polygon class="st8" points="224,287.7 167.8,287.7 163.3,295.5 220.6,295.5 		"/>
		<polygon class="st8" points="281.5,287.7 260,295.5 258.2,300.9 294.8,300.9 298.2,287.7 		"/>
		<polygon class="st8" points="213.6,274.1 220.8,259.2 254.3,259.2 248.5,274.1 		"/>
		<polygon class="st8" points="204.9,259.2 184.2,259.2 172,280.4 193.9,280.4 		"/>
		<polygon class="st8" points="272.4,259.2 269.9,266.5 307.4,266.5 304,280.4 339.2,280.4 342.5,259.2 		"/>
		<polygon class="st8" points="254.3,312.3 257.2,303.8 294.1,303.8 291.9,312.3 		"/>
		<path class="st9" d="M680.1,300.9c11.2,0,22.8,3.6,26,8s-3.4,8.4-15,8.4s-23.4-3.8-26.2-8.4S668.9,300.9,680.1,300.9z"/>
		<path class="st9" d="M115.7,296.3l-18.1,26.2c-1.2,1.8,1.3,3.2,5.7,3.2s8.9-1.5,10-3.2l17.1-26.2c1-1.6-1.4-2.8-5.5-2.8
			S116.7,294.7,115.7,296.3z"/>
		<ellipse class="st10" cx="204.9" cy="315.1" rx="30.3" ry="8"/>
		<path class="st11" d="M204.9,195.3c-26.4,0-47.9,21.4-47.9,47.8c0,0,0,0,0,0c0,26.4,47.9,72,47.9,72s47.9-45.5,47.9-72
			C252.8,216.7,231.3,195.3,204.9,195.3z M204.9,270c-14.8,0-26.9-12-26.9-26.9c0-14.8,12-26.9,26.9-26.9s26.9,12,26.9,26.9
			C231.8,258,219.8,270,204.9,270L204.9,270z"/>
		<path class="st12" d="M204.9,211.1c-17.7,0-32.1,14.4-32.1,32.1s14.4,32.1,32.1,32.1s32.1-14.4,32.1-32.1c0,0,0,0,0,0
			C237,225.4,222.6,211.1,204.9,211.1z M204.9,264.8c-11.9,0-21.6-9.7-21.6-21.6s9.7-21.6,21.6-21.6c11.9,0,21.6,9.7,21.6,21.6
			S216.9,264.8,204.9,264.8C204.9,264.8,204.9,264.8,204.9,264.8z"/>
		<ellipse class="st10" cx="549.5" cy="373.2" rx="21.7" ry="5.7"/>
		<path class="st11" d="M549.5,287.5c-18.9,0-34.2,15.3-34.3,34.2c0,18.9,34.3,51.5,34.3,51.5s34.2-32.5,34.2-51.5
			C583.7,302.8,568.4,287.5,549.5,287.5z M549.5,341c-10.6,0-19.2-8.6-19.2-19.2c0-10.6,8.6-19.2,19.2-19.2
			c10.6,0,19.2,8.6,19.2,19.2C568.7,332.3,560.1,340.9,549.5,341C549.5,341,549.5,341,549.5,341z"/>
		<path class="st12" d="M549.5,298.8c-12.7,0-23,10.3-23,23s10.3,23,23,23s23-10.3,23-23S562.2,298.8,549.5,298.8L549.5,298.8z
			 M549.5,337.2c-8.5,0-15.5-6.9-15.5-15.5c0-8.5,6.9-15.5,15.5-15.5c8.5,0,15.4,6.9,15.5,15.4C565,330.2,558.1,337.2,549.5,337.2
			C549.5,337.2,549.5,337.2,549.5,337.2L549.5,337.2z"/>
		<ellipse class="st10" cx="388.2" cy="277.4" rx="61.5" ry="16.2"/>
		<path class="st11" d="M388.2,34.1c-53.7,0-97.2,43.5-97.2,97.2c0,53.7,97.2,146.2,97.2,146.2s97.2-92.5,97.2-146.2
			C485.4,77.6,441.9,34.1,388.2,34.1C388.2,34.1,388.2,34.1,388.2,34.1z M388.2,185.8c-30.1,0-54.6-24.4-54.6-54.5
			s24.4-54.6,54.5-54.6c30.1,0,54.6,24.4,54.6,54.5c0,0,0,0,0,0C442.8,161.4,418.3,185.8,388.2,185.8
			C388.2,185.8,388.2,185.8,388.2,185.8L388.2,185.8z"/>
		<path class="st12" d="M388.2,66.1c-36,0-65.1,29.2-65.1,65.1s29.2,65.1,65.1,65.1s65.1-29.2,65.1-65.1l0,0
			C453.4,95.3,424.2,66.1,388.2,66.1z M388.2,175.2c-24.3,0-43.9-19.7-43.9-43.9s19.7-43.9,43.9-43.9c24.3,0,43.9,19.7,43.9,43.9v0
			C432.1,155.5,412.5,175.2,388.2,175.2z"/>
		<path class="st0" d="M492.5,125.8c-13.1,0-23.7,10.6-23.7,23.7h47.3C516.2,136.4,505.6,125.8,492.5,125.8z"/>
		<path class="st0" d="M383.3,134.8c-8.1,0-14.7,6.6-14.7,14.7v0H398C398,141.3,391.4,134.8,383.3,134.8
			C383.3,134.8,383.3,134.8,383.3,134.8z"/>
		<path class="st0" d="M433.4,114c-19.6,0-35.4,15.9-35.4,35.4h70.9C468.9,129.9,453,114,433.4,114C433.4,114,433.4,114,433.4,114z"
			/>
		<path class="st0" d="M208.1,142.9c-5.7,0-10.3,4.6-10.3,10.3h20.7C218.4,147.5,213.8,142.9,208.1,142.9
			C208.1,142.9,208.1,142.9,208.1,142.9z"/>
		<path class="st0" d="M178.8,134.3c-10.4,0-18.9,8.5-18.9,18.9l0,0h37.8C197.8,142.8,189.3,134.3,178.8,134.3
			C178.8,134.3,178.8,134.3,178.8,134.3z"/>
		<path class="st0" d="M273.2,74.7c-5.7,0-10.3,4.6-10.3,10.3h20.7C283.6,79.3,278.9,74.7,273.2,74.7
			C273.2,74.7,273.2,74.7,273.2,74.7z"/>
		<path class="st0" d="M244,66.1c-10.4,0-19,8.4-19,18.8c0,0,0,0.1,0,0.1h37.9C262.9,74.6,254.4,66.1,244,66.1z"/>
		<path class="st0" d="M514.3,42.7c-5.7,0-10.3,4.6-10.3,10.3h20.7C524.7,47.3,520,42.7,514.3,42.7L514.3,42.7z"/>
		<path class="st0" d="M485,34.1c-10.4,0-18.9,8.5-18.9,18.9v0H504C504,42.5,495.5,34.1,485,34.1C485.1,34.1,485,34.1,485,34.1z"/>
		<path class="st0" d="M278.7,181.3c-4.4,0-8,3.6-8,8h16C286.7,184.9,283.2,181.3,278.7,181.3z"/>
		<path class="st0" d="M256.2,174.6c-8.1,0-14.6,6.5-14.6,14.6h29.2C270.8,181.2,264.2,174.6,256.2,174.6z"/>
		<path class="st0" d="M589.1,112.1c-5.7,0-10.3,4.6-10.3,10.3l0,0h20.7C599.4,116.8,594.8,112.1,589.1,112.1
			C589.1,112.1,589.1,112.1,589.1,112.1z"/>
		<path class="st0" d="M559.8,103.5c-10.4,0-18.9,8.5-18.9,18.9h37.8C578.7,112,570.3,103.5,559.8,103.5
			C559.8,103.5,559.8,103.5,559.8,103.5z"/>
		<path class="st0" d="M258.2,152.6h-1.4v-1.4c0-0.4-0.3-0.6-0.6-0.6l0,0c-0.4,0-0.6,0.3-0.6,0.6v1.4h-1.4c-0.4,0-0.7,0.3-0.7,0.6
			s0.3,0.7,0.6,0.7c0,0,0,0,0,0h1.4v1.4c0,0.4,0.3,0.6,0.6,0.6l0,0c0.4,0,0.6-0.3,0.6-0.6v-1.4h1.4c0.4,0,0.6-0.3,0.6-0.7
			C258.8,152.9,258.5,152.6,258.2,152.6z"/>
		<path class="st0" d="M291.4,168.8H290v-1.4c0-0.4-0.3-0.6-0.6-0.6l0,0c-0.4,0-0.6,0.3-0.6,0.6v1.4h-1.4c-0.4,0-0.7,0.3-0.7,0.6
			s0.3,0.7,0.6,0.7c0,0,0,0,0,0h1.4v1.4c0,0.4,0.3,0.6,0.6,0.6l0,0c0.4,0,0.6-0.3,0.6-0.6v-1.4h1.4c0.4,0,0.7-0.3,0.7-0.6
			S291.7,168.8,291.4,168.8C291.4,168.8,291.4,168.8,291.4,168.8L291.4,168.8z"/>
		<path class="st0" d="M370.7,110h-1.4v-1.4c0-0.4-0.3-0.6-0.6-0.6l0,0c-0.4,0-0.6,0.3-0.6,0.6v1.4h-1.4c-0.4,0-0.6,0.3-0.6,0.7
			c0,0.4,0.3,0.6,0.6,0.6h1.4v1.4c0,0.4,0.3,0.6,0.6,0.6l0,0c0.4,0,0.6-0.3,0.6-0.6v-1.4h1.4c0.4,0,0.6-0.3,0.6-0.7
			C371.3,110.3,371,110,370.7,110L370.7,110z"/>
		<path class="st0" d="M402,117h-1.4v-1.4c0-0.4-0.3-0.6-0.6-0.6l0,0c-0.4,0-0.6,0.3-0.6,0.6v1.4H398c-0.4,0-0.6,0.3-0.6,0.7
			c0,0.4,0.3,0.6,0.6,0.6h1.4v1.4c0,0.4,0.3,0.6,0.6,0.6l0,0c0.4,0,0.6-0.3,0.6-0.6v-1.4h1.3c0.4,0,0.7-0.3,0.7-0.6
			S402.4,117,402,117C402,117,402,117,402,117L402,117z"/>
		<path class="st0" d="M502.8,107.3h-1.4v-1.4c0-0.4-0.3-0.6-0.6-0.6l0,0c-0.4,0-0.6,0.3-0.6,0.6v1.4h-1.4c-0.4,0-0.7,0.3-0.7,0.6
			s0.3,0.7,0.6,0.7c0,0,0,0,0,0h1.4v1.4c0,0.4,0.3,0.6,0.6,0.6l0,0c0.4,0,0.6-0.3,0.6-0.6v-1.4h1.4c0.4,0,0.6-0.3,0.6-0.7
			C503.5,107.6,503.2,107.3,502.8,107.3L502.8,107.3z"/>
		<path class="st0" d="M536,94.9h-1.4v-1.4c0-0.4-0.3-0.6-0.7-0.6l0,0l0,0c-0.4,0-0.7,0.3-0.7,0.6v0v1.4H532c-0.4,0-0.7,0.3-0.7,0.7
			c0,0.4,0.3,0.6,0.7,0.6h1.4v1.4c0,0.4,0.3,0.6,0.7,0.6l0,0l0,0c0.4,0,0.7-0.3,0.7-0.6c0,0,0,0,0,0v-1.4h1.3c0.4,0,0.7-0.3,0.7-0.6
			C536.7,95.2,536.4,94.9,536,94.9z"/>
		<path class="st0" d="M480.5,68.2h-1.4v-1.4c0-0.4-0.3-0.6-0.6-0.6l0,0c-0.4,0-0.6,0.3-0.6,0.6v1.4h-1.4c-0.4,0-0.6,0.3-0.6,0.7
			c0,0.4,0.3,0.6,0.6,0.6l0,0h1.4v1.4c0,0.4,0.3,0.6,0.6,0.6l0,0c0.4,0,0.6-0.3,0.6-0.6v-1.4h1.4c0.4,0,0.6-0.3,0.6-0.6
			C481.2,68.4,480.9,68.2,480.5,68.2z"/>
		<path class="st0" d="M510.3,82.8h-1.4v-1.4c0-0.4-0.3-0.6-0.6-0.6l0,0c-0.4,0-0.6,0.3-0.6,0.6v1.4h-1.4c-0.4,0-0.6,0.3-0.6,0.6
			c0,0.4,0.3,0.7,0.6,0.7l0,0h1.4v1.4c0,0.4,0.3,0.6,0.6,0.6l0,0c0.4,0,0.6-0.3,0.6-0.6v-1.4h1.4c0.4,0,0.6-0.3,0.6-0.7
			C510.9,83.1,510.6,82.8,510.3,82.8z"/>
		<path class="st0" d="M576.6,80.2h-1.4v-1.4c0-0.4-0.3-0.6-0.7-0.6l0,0l0,0c-0.4,0-0.7,0.3-0.7,0.6v0v1.4h-1.4
			c-0.4,0-0.7,0.3-0.7,0.6c0,0.4,0.3,0.7,0.7,0.7h1.4v1.4c0,0.4,0.3,0.6,0.7,0.6l0,0l0,0c0.4,0,0.7-0.3,0.7-0.6v0v-1.4h1.4
			c0.4,0,0.7-0.3,0.7-0.7C577.2,80.5,576.9,80.2,576.6,80.2z"/>
		<path class="st0" d="M497.5,174.6h-1.4v-1.4c0-0.4-0.3-0.6-0.6-0.6l0,0c-0.4,0-0.6,0.3-0.6,0.6v1.4h-1.4c-0.4,0-0.7,0.3-0.7,0.6
			s0.3,0.7,0.6,0.7c0,0,0,0,0,0h1.4v1.4c0,0.4,0.3,0.6,0.6,0.6l0,0c0.4,0,0.6-0.3,0.6-0.6v-1.4h1.4c0.4,0,0.6-0.3,0.6-0.7
			C498.1,174.8,497.8,174.6,497.5,174.6z"/>
		<path class="st0" d="M528.5,166.1h-1.4v-1.4c0-0.4-0.3-0.6-0.7-0.6l0,0l0,0c-0.4,0-0.7,0.3-0.7,0.6c0,0,0,0,0,0v1.4h-1.4
			c-0.4,0-0.7,0.3-0.7,0.6c0,0.4,0.3,0.7,0.6,0.7c0,0,0,0,0,0h1.4v1.4c0,0.4,0.3,0.6,0.7,0.6l0,0l0,0c0.4,0,0.7-0.3,0.7-0.6
			c0,0,0,0,0,0v-1.4h1.4c0.4,0,0.7-0.3,0.7-0.6C529.2,166.4,528.9,166.1,528.5,166.1C528.5,166.1,528.5,166.1,528.5,166.1z"/>
		<path class="st0" d="M459.5,220.9h-1.4v-1.4c0-0.4-0.3-0.6-0.6-0.6l0,0c-0.4,0-0.6,0.3-0.6,0.6v1.4h-1.4c-0.4,0-0.6,0.3-0.6,0.7
			c0,0.4,0.3,0.6,0.6,0.6h1.4v1.4c0,0.4,0.3,0.6,0.6,0.6l0,0c0.4,0,0.6-0.3,0.6-0.6v-1.4h1.4c0.4,0,0.6-0.3,0.6-0.7
			C460.1,221.2,459.9,220.9,459.5,220.9z"/>
		<path class="st0" d="M548.8,200.6h-1.4v-1.4c0-0.4-0.3-0.6-0.7-0.6l0,0l0,0c-0.4,0-0.7,0.3-0.7,0.6c0,0,0,0,0,0v1.4h-1.4
			c-0.4,0-0.6,0.3-0.6,0.7c0,0.4,0.3,0.6,0.6,0.6h1.4v1.4c0,0.4,0.3,0.6,0.7,0.6l0,0l0,0c0.4,0,0.7-0.3,0.7-0.6c0,0,0,0,0,0v-1.4
			h1.4c0.4,0,0.6-0.3,0.6-0.7C549.5,200.9,549.2,200.6,548.8,200.6z"/>
		<path class="st0" d="M559.2,148.8h-1.4v-1.4c0-0.4-0.3-0.6-0.7-0.6l0,0l0,0c-0.4,0-0.7,0.3-0.7,0.6c0,0,0,0,0,0v1.4h-1.4
			c-0.4,0-0.6,0.3-0.6,0.7c0,0.4,0.3,0.6,0.6,0.6h1.4v1.4c0,0.4,0.3,0.6,0.7,0.6l0,0l0,0c0.4,0,0.7-0.3,0.7-0.6c0,0,0,0,0,0v-1.4
			h1.4c0.4,0,0.7-0.3,0.7-0.6C559.8,149.1,559.5,148.8,559.2,148.8C559.2,148.8,559.2,148.8,559.2,148.8z"/>
		<path class="st0" d="M240.6,119.7h-1.4v-1.4c0-0.4-0.3-0.6-0.6-0.6l0,0c-0.4,0-0.6,0.3-0.6,0.6v1.4h-1.4c-0.4,0-0.7,0.3-0.7,0.6
			s0.3,0.7,0.6,0.7c0,0,0,0,0,0h1.4v1.4c0,0.4,0.3,0.6,0.6,0.6l0,0c0.4,0,0.6-0.3,0.6-0.6V121h1.4c0.4,0,0.7-0.3,0.7-0.6
			S241,119.7,240.6,119.7C240.6,119.7,240.6,119.7,240.6,119.7z"/>
		<path class="st0" d="M288.7,62.8h-1.4v-1.4c0-0.4-0.3-0.6-0.6-0.6l0,0c-0.4,0-0.6,0.3-0.6,0.6v1.4h-1.4c-0.4,0-0.6,0.3-0.6,0.6
			c0,0.4,0.3,0.7,0.6,0.7h1.4v1.4c0,0.4,0.3,0.6,0.6,0.6l0,0c0.4,0,0.6-0.3,0.6-0.6v-1.4h1.4c0.4,0,0.6-0.3,0.6-0.7
			C289.4,63.1,289.1,62.8,288.7,62.8L288.7,62.8z"/>
		<path class="st0" d="M198.8,102.9h-1.4v-1.4c0-0.4-0.3-0.6-0.6-0.6l0,0c-0.4,0-0.6,0.3-0.6,0.6v1.4h-1.4c-0.4,0-0.7,0.3-0.7,0.6
			s0.3,0.7,0.6,0.7c0,0,0,0,0,0h1.4v1.4c0,0.4,0.3,0.6,0.6,0.6l0,0c0.4,0,0.6-0.3,0.6-0.6v-1.4h1.4c0.4,0,0.7-0.3,0.7-0.6
			S199.2,102.9,198.8,102.9C198.8,102.9,198.8,102.9,198.8,102.9z"/>
		<path class="st0" d="M222.2,166h-1.4v-1.4c0-0.4-0.3-0.6-0.6-0.6l0,0c-0.4,0-0.6,0.3-0.6,0.6v1.4h-1.4c-0.4,0-0.6,0.3-0.6,0.7
			c0,0.4,0.3,0.6,0.6,0.6h1.4v1.3c0,0.4,0.3,0.6,0.6,0.6l0,0c0.4,0,0.6-0.3,0.6-0.6v-1.4h1.4c0.4,0,0.7-0.3,0.7-0.6
			S222.6,166,222.2,166C222.2,166,222.2,166,222.2,166L222.2,166z"/>
		<path class="st0" d="M185.3,178.4H184V177c0-0.4-0.3-0.6-0.6-0.6l0,0c-0.4,0-0.6,0.3-0.6,0.6v1.4h-1.4c-0.4,0-0.7,0.3-0.7,0.6
			s0.3,0.7,0.6,0.7c0,0,0,0,0,0h1.4v1.4c0,0.4,0.3,0.6,0.6,0.6l0,0c0.4,0,0.6-0.3,0.6-0.6v-1.4h1.4c0.4,0,0.6-0.3,0.6-0.7
			C186,178.7,185.7,178.4,185.3,178.4L185.3,178.4z"/>
		<path class="st0" d="M280.2,210.4h-1.4v-1.4c0-0.4-0.3-0.6-0.6-0.6l0,0c-0.4,0-0.6,0.3-0.6,0.6v1.4h-1.4c-0.4,0-0.6,0.3-0.6,0.7
			c0,0.4,0.3,0.6,0.6,0.6h1.4v1.4c0,0.4,0.3,0.6,0.6,0.6l0,0c0.4,0,0.6-0.3,0.6-0.6v-1.4h1.4c0.4,0,0.7-0.3,0.7-0.6
			S280.6,210.4,280.2,210.4C280.2,210.4,280.2,210.4,280.2,210.4L280.2,210.4z"/>
	</g>
</g>
</svg>
